<?xml version="1.0" encoding="UTF-8" standalone="no"?>
<!-- Created with Inkscape (http://www.inkscape.org/) -->

<svg
   width="210mm"
   height="297mm"
   viewBox="0 0 210 297"
   version="1.1"
   id="svg373"
   xml:space="preserve"
   inkscape:version="1.2.2 (b0a8486541, 2022-12-01)"
   sodipodi:docname="favicon.svg"
   xmlns:inkscape="http://www.inkscape.org/namespaces/inkscape"
   xmlns:sodipodi="http://sodipodi.sourceforge.net/DTD/sodipodi-0.dtd"
   xmlns="http://www.w3.org/2000/svg"
   xmlns:svg="http://www.w3.org/2000/svg"><sodipodi:namedview
     id="namedview375"
     pagecolor="#ffffff"
     bordercolor="#666666"
     borderopacity="1.0"
     inkscape:showpageshadow="2"
     inkscape:pageopacity="0.0"
     inkscape:pagecheckerboard="0"
     inkscape:deskcolor="#d1d1d1"
     inkscape:document-units="mm"
     showgrid="false"
     inkscape:zoom="0.37460368"
     inkscape:cx="-662.03301"
     inkscape:cy="989.04528"
     inkscape:window-width="1920"
     inkscape:window-height="1022"
     inkscape:window-x="0"
     inkscape:window-y="0"
     inkscape:window-maximized="1"
     inkscape:current-layer="layer1" /><defs
     id="defs370" /><g
     inkscape:label="Layer 1"
     inkscape:groupmode="layer"
     id="layer1"><path
       d="m -194.47689,43.12107 c -0.38687,-0.21013 -0.95242,-0.78497 -1.25676,-1.27741 -0.52078,-0.84264 -0.55336,-1.26552 -0.55336,-7.18289 0,-5.84214 0.0378,-6.34867 0.53333,-7.1505 1.45838,-2.35969 4.84709,-2.12681 6.14699,0.42243 0.39891,0.78232 0.4626,1.7087 0.4626,6.72807 0,5.01421 -0.0641,5.94843 -0.4626,6.7416 -0.92198,1.83508 -3.18534,2.63382 -4.8702,1.7187 z m 28.42373,0.011 c -0.47008,-0.20435 -1.09471,-0.76524 -1.38808,-1.24642 -0.50732,-0.83211 -0.53343,-1.31759 -0.53437,-9.93683 -5.3e-4,-4.98409 -0.0903,-9.06443 -0.19943,-9.06744 -0.10914,-0.003 -2.16296,2.02351 -4.56406,4.50337 l -4.36562,4.50885 -1.43468,-0.005 c -1.62874,-0.006 -1.37351,0.21464 -8.04337,-6.95962 l -3.12805,-3.36458 h -3.2881 c -2.60446,-0.21272 -3.28809,-0.0543 -3.28809,-5.05325 0,-5.66075 0.17851,-6.42961 1.71304,-7.3779999 1.01144,-0.6251 2.75484,-0.69987 3.7902,-0.16255 0.63743,0.33081 4.89878,4.9835199 9.21265,10.0587599 0.85579,1.00683 1.8819,2.19745 2.28025,2.64584 l 0.72427,0.81524 0.99552,-1.18456 c 4.71795,-5.61385 10.49498,-11.9026799 11.27327,-12.2719999 1.41407,-0.67102 2.88802,-0.56456 3.89313,0.28118 1.59629,1.3431899 1.57238,1.0886299 1.56602,16.6725999 -0.006,13.46001 -0.0333,14.29039 -0.51379,15.34886 -0.87177,1.92043 -2.75734,2.64085 -4.70071,1.79601 z m 68.031499,0.0264 c -0.45161,-0.20334 -3.715079,-3.29983 -7.252159,-6.88108 l -6.43106,-6.51139 h -7.45924 c -7.30717,0 -7.47756,-0.0122 -8.35826,-0.59881 -2.08371,-1.38788 -2.30168,-3.74933 -0.51132,-5.53968 0.988,-0.98799 1.03985,-1.00525 3.02075,-1.00525 h 2.01551 v -3.58434 -3.58434 l -9.45885,0.0786 -9.45886,0.0786 -1.45583,0.68297 c -0.8007,0.37563 -2.02594,1.25309 -2.72275,1.9499 -2.55822,2.55821 -3.08627,4.62571 -3.09286,12.10955 l -0.005,5.21742 15.54427,0.0742 c 14.76251,0.0705 15.58154,0.0995 16.28539,0.57656 2.24697,1.52292 1.9042,5.04505 -0.6141,6.31029 -0.84839,0.42624 -2.27302,0.46261 -18.11869,0.46261 -18.99212,0 -18.29016,0.06 -19.56036,-1.67275 -0.52897,-0.72162 -0.54797,-1.06111 -0.54797,-9.78959 0,-10.09747 0.0455,-10.42846 1.93445,-14.06912 1.29496,-2.49585 4.81405,-6.02131 7.19367,-7.20669 3.49776,-1.7423799 4.81484,-1.9134699 16.13587,-2.0961399 11.30388,-0.1824 12.66273,-0.0666 13.82265,1.17749 1.21319,1.3012499 1.26231,1.5961899 1.26231,7.5787799 l 2e-5,5.70594 h 1.71257 1.71257 l 6.55499,-6.64164 c 3.60524,-3.65291 6.853519,-6.7960299 7.218409,-6.9847199 0.66078,-0.34171 1.60934,-0.47791 2.95711,-0.42459 0.41346,0.0163 1.10243,0.39931 1.65364,0.91917 0.85409,0.8055099 0.94535,1.0279599 0.9498,2.3151099 l 0.005,1.42396 -6.25937,6.16488 -6.259369,6.16487 0.76204,0.84658 c 0.41912,0.46562 3.22274,3.3474 6.230269,6.40396 4.5429,4.61697 5.49887,5.72074 5.64932,6.52272 0.48988,2.61129 -2.5845,4.93821 -5.05487,3.8259 z m 11.88031,-0.15258 c -1.71271,-1.04431 -1.66649,-0.57821 -1.66649,-16.80712 0,-12.20029 0.0649,-14.86136 0.38095,-15.61776 1.03899,-2.4866399 4.94058,-2.6705999 6.07201,-0.28629 0.39563,0.83374 0.43176,2.41107 0.36641,15.99777 l -0.0725,15.07283 -0.66146,0.70777 c -1.40257,1.50077 -2.95125,1.82768 -4.41891,0.93279 z m 10.45985,0.0664 c -0.38826,-0.24089 -0.95381,-0.87901 -1.25677,-1.41805 -0.53982,-0.96049 -0.55083,-1.27617 -0.55083,-15.78775 V 11.05884 l 0.60325,-0.89517 c 0.99782,-1.4806599 2.51456,-1.9256799 4.36486,-1.2806599 0.83727,0.29187 3.24406,2.8955899 9.02479,9.7632199 1.65698,1.96853 3.09972,3.61358 3.2061,3.65566 0.10638,0.0421 1.2584,-1.20807 2.56005,-2.77813 4.74605,-5.72471 9.03377,-10.3271899 9.90331,-10.6303199 2.09491,-0.73029 3.86601,-0.009 4.58043,1.8663099 0.39048,1.02479 0.42892,2.68183 0.36116,15.56666 -0.0727,13.82611 -0.0974,14.45542 -0.59922,15.2853 -0.69662,1.152 -2.49877,2.02499 -3.71085,1.79761 -0.50026,-0.0939 -1.25388,-0.46037 -1.67473,-0.81448 -1.35634,-1.1413 -1.47084,-2.16291 -1.27783,-11.40138 0.0954,-4.56865 0.084,-8.30663 -0.0255,-8.30663 -0.10945,0 -1.92342,1.85711 -4.03104,4.12692 -2.10763,2.26981 -4.15488,4.29388 -4.54946,4.49792 -0.83288,0.4307 -2.41464,0.48655 -3.11806,0.11008 -0.26813,-0.14349 -2.28004,-2.21987 -4.47092,-4.61418 l -3.98343,-4.35326 -0.0757,9.35566 -0.0757,9.35568 -0.66145,0.7076 c -1.36286,1.45793 -3.16416,1.85409 -4.5424,0.99902 z m -65.175309,-12.9278 c -2.03513,-1.05628 -3.21759,-3.14172 -2.97943,-5.25465 0.33354,-2.95918 2.98205,-5.15918 5.80804,-4.82448 3.89999,0.46189 5.98113,5.01524 3.74587,8.19562 -1.07569,1.53052 -2.50732,2.28936 -4.32553,2.29277 -0.80624,0.002 -1.80918,-0.181 -2.24895,-0.40926 z"
       style="fill:#000000;stroke-width:0.264583"
       id="path588-3"
       sodipodi:nodetypes="sssssssscssssccscccsssscssscscccscsssscccccssccccssssssssscccsscsccccsssccssssscssscsscsssssscsscscssssscccscccssscc" /><path
       d="m -94.2481,90.161152 c 1.684539,0 1.734169,-2.51435 0.91018,-4.02493 -0.33204,-0.60872 -3.11914,-3.70377 -6.19355,-6.87791 l -5.58985,-5.77113 5.65895,-5.81345 c 3.11242,-3.1974 5.84377,-6.14956 6.06965,-6.56036 0.535929,-0.97466 0.28742,-2.08023 -0.68651,-3.05415 -0.41615,-0.41615 -1.10707,-0.82673 -1.53538,-0.91239 -1.74952,-0.3499 -2.28986,0.062 -9.2129,7.02314 -3.65724,3.67738 -6.84149,7.06719 -7.0761,7.5329 -0.50072,0.99396 -0.5418,2.62097 -0.0865,3.42453 0.59737,1.05421 14.32981,15.17056 15.00124,15.42062 0.76543,0.28506 1.87675,-0.38687 2.74073,-0.38687 z m 10.466789,0.28766 c 0.45902,0 0.96735,-0.71685 1.24361,-1.12447 0.47098,-0.6949 0.50781,-1.46741 0.59021,-12.38281 0.0483,-6.40291 0.006,-13.10318 -0.0932,-14.88949 -0.1738,-3.11759 -0.21166,-3.27842 -0.94429,-4.01105 -1.00918,-1.00918 -2.52313,-1.27293 -3.80772,-0.66336 -1.77612,0.84282 -1.725,0.35022 -1.725,16.62005 v 14.67722 l 0.70604,0.83906 c 1.12085,1.33206 2.41908,0.93486 4.03031,0.93485 z m 11.90624,0 c 1.62013,-0.8378 1.61243,-0.7843 1.62603,-11.31516 l 0.0124,-9.60045 2.0026,2.11667 c 1.10142,1.16416 3.08156,3.34495 4.40029,4.84618 1.31872,1.50123 2.72778,2.90022 3.13124,3.10885 0.97029,0.50176 2.47455,0.48154 3.27672,-0.0441 0.3554,-0.23287 2.31533,-2.30935 4.35541,-4.6144 2.04006,-2.30505 4.00619,-4.52553 4.36916,-4.93441 l 0.65994,-0.74342 -0.0191,9.60468 c -0.0167,8.36875 0.0352,9.68758 0.40298,10.24892 1.41083,2.15321 4.41681,2.17606 5.71713,0.0435 0.49516,-0.81207 0.51653,-1.42912 0.51747,-14.94462 10e-4,-15.29563 0.004,-15.26787 -1.45784,-16.41739 -0.54897,-0.43182 -1.09194,-0.57359 -2.19684,-0.57359 h -1.46763 l -2.01391,2.05052 c -1.10765,1.12779 -3.97138,4.17339 -6.36383,6.768 l -4.34991,4.71748 -0.77105,-0.88102 c -2.78898,-3.18674 -10.38135,-11.42282 -11.04418,-11.98055 -0.64733,-0.5447 -1.08261,-0.67443 -2.26287,-0.67443 -1.30917,0 -1.55506,0.0937 -2.36095,0.89958 l -0.89959,0.89959 v 14.82282 14.82284 l 0.70603,0.83906 c 1.12086,1.33206 2.59912,1.67496 4.03032,0.93485 z m -78.852279,-0.11261 c -1.49069,-1.17697 -1.55575,-1.61993 -1.54568,-10.52424 0.0106,-9.37322 0.22342,-11.16216 1.66955,-14.03379 2.27119,-4.50998 6.30136,-7.68275 11.23577,-8.8454 0.8019,-0.18895 4.51194,-0.27708 10.49072,-0.24919 8.55206,0.0399 9.31074,0.0807 10.05416,0.54112 1.79378,1.11091 1.73014,0.49804 1.73014,16.66194 0,12.52426 -0.0568,14.70047 -0.40135,15.36669 -1.10536,2.13752 -4.72817,2.08846 -5.85529,-0.0793 -0.40109,-0.77139 -0.43856,-2.08504 -0.38144,-13.37291 l 0.0633,-12.51748 -7.09752,0.0857 c -6.67263,0.0806 -7.18783,0.12199 -8.60608,0.6916 -2.76852,1.11191 -4.94504,3.60853 -5.7491,6.59459 -0.18991,0.70526 -0.3054,4.0018 -0.31501,8.9914 -0.008,4.33286 -0.12228,8.30238 -0.25318,8.82118 -0.36043,1.4285 -1.30804,2.16696 -2.95389,2.30195 -1.12024,0.0919 -1.52623,0.007 -2.08514,-0.43389 z m 13.91939,-7.90338 c -2.03512,-1.05629 -3.21758,-3.14173 -2.97943,-5.25466 0.33355,-2.95919 2.98205,-5.15919 5.80804,-4.82449 3.89999,0.46189 5.98114,5.01525 3.74587,8.19563 -1.07568,1.53052 -2.50732,2.28937 -4.32552,2.29278 -0.80625,0.002 -1.80919,-0.181 -2.24896,-0.40926 z m -53.45385,9.084683 c -0.38688,-0.210133 -0.95242,-0.784973 -1.25677,-1.277413 -0.52078,-0.84264 -0.55336,-1.26552 -0.55336,-7.18289 0,-5.84216 0.0378,-6.34869 0.53334,-7.15052 1.45837,-2.35969 4.84709,-2.12681 6.14698,0.42243 0.39891,0.78232 0.46261,1.7087 0.46261,6.72809 0,5.01421 -0.0641,5.94843 -0.46261,6.7416 -0.92197,1.835083 -3.18534,2.633823 -4.87019,1.718703 z m 28.42373,0.011 c -0.47008,-0.204353 -1.09471,-0.765243 -1.38808,-1.246423 -0.50732,-0.83211 -0.53343,-1.31759 -0.53437,-9.93685 -5.3e-4,-4.98409 -0.0903,-9.06443 -0.19943,-9.06744 -0.10914,-0.003 -2.16297,2.02351 -4.56406,4.50337 l -4.36563,4.50885 -1.43467,-0.005 c -1.62875,-0.006 -1.37348,0.21462 -8.04337,-6.95962 l -3.12805,-3.36458 h -3.2881 -3.2881 v -5.05325 c 0,-5.66075 0.17852,-6.42961 1.71305,-7.378 1.01143,-0.6251 2.75483,-0.69987 3.7902,-0.16255 0.63743,0.33081 4.89877,4.98352 9.21265,10.05876 0.85579,1.00683 1.8819,2.19745 2.28025,2.64584 l 0.72427,0.81524 0.99552,-1.18456 c 4.71795,-5.61385 10.49498,-11.90268 11.27327,-12.272 1.41407,-0.67102 2.88802,-0.56456 3.89313,0.28118 1.59629,1.34319 1.57238,1.08863 1.56602,16.6726 -0.006,13.46003 -0.0333,14.29041 -0.51379,15.34888 -0.87177,1.920433 -2.75734,2.640853 -4.70071,1.796013 z"
       style="fill:#000000;stroke-width:0.264583"
       id="path691"
       sodipodi:nodetypes="ssscsssssscsssssscssscssssscsssssscccsccscsscsssscccssscsssssscscccsscssccsssscssssssssscssssccscccssssscssscscc" /><path
       d="m 17.194997,48.533717 c -0.386879,-0.21013 -0.952425,-0.78497 -1.256769,-1.27741 -0.52078,-0.84264 -0.553358,-1.26552 -0.553358,-7.18289 0,-5.84214 0.03778,-6.34867 0.533337,-7.1505 1.458371,-2.35969 4.847086,-2.12681 6.146981,0.42243 0.398912,0.78232 0.462608,1.7087 0.462608,6.72807 0,5.01421 -0.06411,5.94843 -0.462608,6.7416 -0.921975,1.83508 -3.185337,2.63382 -4.870191,1.7187 z m 28.42373,0.011 c -0.47008,-0.20435 -1.09471,-0.76524 -1.38808,-1.24642 -0.50732,-0.83211 -0.53343,-1.31759 -0.53437,-9.93683 -5.3e-4,-4.98409 -0.0903,-9.06443 -0.19943,-9.06744 -0.10914,-0.003 -2.162974,2.02351 -4.564062,4.50337 l -4.365626,4.50885 -1.434678,-0.005 c -1.628741,-0.006 -1.37348,0.21462 -8.04337,-6.95962 l -3.12805,-3.36458 h -3.288096 c -2.604463,-0.21272 -3.288095,-0.0543 -3.288095,-5.05325 0,-5.66075 0.178514,-6.42961 1.713044,-7.378 1.011436,-0.6251 2.754836,-0.69987 3.790198,-0.16255 0.637432,0.33081 4.898777,4.98352 9.212656,10.05876 0.855787,1.00683 1.881897,2.19746 2.280246,2.64584 l 0.72427,0.81524 0.995521,-1.18456 c 4.717952,-5.61384 10.494982,-11.90268 11.273272,-12.272 1.41407,-0.67102 2.88802,-0.56456 3.89313,0.28118 1.59629,1.34319 1.57238,1.08863 1.56602,16.6726 -0.006,13.46001 -0.0333,14.29039 -0.51379,15.34886 -0.87177,1.92043 -2.75734,2.64085 -4.70071,1.79601 z"
       style="fill:#000000;stroke-width:0.264583"
       id="path691-6"
       sodipodi:nodetypes="sssssssscssssccsccssssscssscscc" /><path
       d="m 81.597679,47.879427 c 1.62013,-0.8378 1.61243,-0.7843 1.62603,-11.31516 l 0.0124,-9.60045 2.0026,2.11667 c 1.101424,1.16416 3.081564,3.34495 4.400294,4.84618 1.31872,1.50123 2.72778,2.90022 3.13124,3.10885 0.97029,0.50176 2.47455,0.48154 3.27672,-0.0441 0.3554,-0.23287 2.31533,-2.30935 4.355407,-4.6144 2.04006,-2.30505 4.00619,-4.52553 4.36916,-4.93441 l 0.65994,-0.74342 -0.0191,9.60468 c -0.0167,8.36875 0.0352,9.68758 0.40298,10.24892 1.41083,2.15321 4.41681,2.17606 5.71713,0.0435 0.49516,-0.81207 0.51653,-1.42912 0.51747,-14.94462 0.001,-15.29563 0.004,-15.26787 -1.45784,-16.41739 -0.54897,-0.43182 -1.09194,-0.57359 -2.19684,-0.57359 h -1.46763 l -2.01391,2.05052 c -1.10765,1.12779 -3.97138,4.17339 -6.363827,6.768 l -4.34991,4.71748 -0.77105,-0.88102 c -2.78898,-3.18674 -10.381354,-11.42282 -11.044184,-11.98055 -0.64733,-0.5447 -1.08261,-0.67443 -2.26287,-0.67443 -1.30917,0 -1.55506,0.0937 -2.36095,0.89958 l -0.89959,0.89959 v 14.82282 14.82284 l 0.70603,0.83906 c 1.12086,1.33206 2.59912,1.67496 4.03032,0.93485 z"
       style="fill:#000000;stroke-width:0.264583"
       id="path1030" /><path
       d="m 72.524162,47.408787 c 0.53326,-0.44378 1.46931,-2.20534 0.64532,-3.71592 -0.33204,-0.60872 -3.119132,-3.70379 -6.193558,-6.87791 l -5.58986,-5.77113 5.65896,-5.81345 c 3.112425,-3.19739 5.843778,-6.14956 6.069658,-6.56036 0.53593,-0.97466 0.28742,-2.08023 -0.68651,-3.05415 -0.41615,-0.41615 -1.107073,-0.82673 -1.535388,-0.91239 -1.74952,-0.3499 -2.28986,0.062 -9.21291,7.02314 -3.65724,3.67738 -6.84149,7.06719 -7.0761,7.5329 -0.50072,0.99396 -0.5418,2.62097 -0.0865,3.42453 0.59737,1.05421 14.32982,15.17056 15.00125,15.42062 1.465045,0.58758 2.472378,-0.25211 3.005638,-0.69588 z"
       style="fill:#000000;stroke-width:0.264583"
       id="path1063" /><path
       d="m 14.532266,198.41004 c -0.38688,-0.21013 -0.95242,-0.78497 -1.25677,-1.27741 -0.52077,-0.84264 -0.55335,-1.26552 -0.55335,-7.18289 0,-5.84214 0.0378,-6.34867 0.53333,-7.1505 1.45838,-2.35969 4.84709,-2.12681 6.14699,0.42243 0.39891,0.78232 0.4626,1.7087 0.4626,6.72807 0,5.01421 -0.0641,5.94843 -0.4626,6.7416 -0.92198,1.83508 -3.18534,2.63382 -4.8702,1.7187 z m 28.42372,0.011 c -0.47008,-0.20435 -1.09471,-0.76524 -1.38808,-1.24642 -0.50732,-0.83211 -0.53343,-1.31759 -0.53437,-9.93683 -5.3e-4,-4.98409 -0.0903,-9.06443 -0.19943,-9.06744 -0.10914,-0.003 -2.16297,2.02351 -4.56406,4.50337 l -4.36562,4.50885 -1.43467,-0.005 c -1.62874,-0.006 -1.37348,0.21462 -8.04337,-6.95962 l -3.12805,-3.36458 h -3.2881 c -2.60446,-0.21272 -3.28809,-0.0543 -3.28809,-5.05325 0,-5.66075 0.17851,-6.42961 1.71304,-7.378 1.01144,-0.6251 2.75484,-0.69987 3.7902,-0.16255 0.63743,0.33081 4.89878,4.98352 9.21265,10.05876 0.85579,1.00683 1.8819,2.19746 2.28025,2.64584 l 0.72427,0.81524 0.99551,-1.18456 c 4.71795,-5.61384 10.49498,-11.90268 11.27327,-12.272 1.41407,-0.67102 2.88802,-0.56456 3.89312,0.28118 1.59629,1.34319 1.57238,1.08863 1.56602,16.6726 -0.006,13.46001 -0.0333,14.29039 -0.51379,15.34886 -0.87177,1.92043 -2.75733,2.64085 -4.7007,1.79601 z"
       style="fill:#000000;stroke-width:0.264583"
       id="path691-6-5"
       sodipodi:nodetypes="sssssssscssssccsccssssscssscscc" /><path
       d="m 14.787431,99.555367 c -0.386879,-0.21013 -0.952425,-0.78497 -1.256769,-1.27741 -0.52078,-0.84264 -0.553358,-1.26552 -0.553358,-7.18289 0,-5.84214 0.03778,-6.34867 0.533337,-7.1505 1.458371,-2.35969 4.847091,-2.12681 6.146981,0.42243 0.39891,0.78232 0.46261,1.7087 0.46261,6.72807 0,5.01421 -0.0641,5.94843 -0.46261,6.7416 -0.92197,1.83508 -3.185337,2.633823 -4.870191,1.7187 z m 28.423719,0.011 c -0.47008,-0.20435 -1.09471,-0.76524 -1.38808,-1.24642 -0.50732,-0.83211 -0.53343,-1.31759 -0.53437,-9.93683 -5.3e-4,-4.98409 -0.0903,-9.06443 -0.19943,-9.06744 -0.10914,-0.003 -2.16298,2.02351 -4.564057,4.50337 l -4.365627,4.50885 -1.43468,-0.005 c -1.62874,-0.006 -1.37348,0.21462 -8.043367,-6.95962 l -3.128047,-3.36458 h -3.288093 c -2.604463,-0.21272 -3.288095,-0.0543 -3.288095,-5.05325 0,-5.66075 0.178514,-6.42961 1.713044,-7.378 1.011436,-0.6251 2.754834,-0.69987 3.790194,-0.16255 0.63744,0.33081 4.898777,4.98352 9.212657,10.05876 0.855787,1.00683 1.881897,2.19746 2.280247,2.64584 l 0.72427,0.81524 0.99552,-1.18456 c 4.717947,-5.61384 10.494974,-11.90268 11.273264,-12.272 1.414067,-0.67102 2.888017,-0.56456 3.893127,0.28118 1.59629,1.34319 1.57238,1.08863 1.56602,16.6726 -0.006,13.46001 -0.0333,14.29039 -0.51379,15.34886 -0.87177,1.92043 -2.75734,2.640853 -4.700707,1.79601 z"
       style="fill:#000000;stroke-width:0.264583"
       id="path691-6-7"
       sodipodi:nodetypes="sssssssscssssccsccssssscssscscc"
       inkscape:export-filename="../v1/favicon"
       inkscape:export-xdpi="139.81"
       inkscape:export-ydpi="139.81" /><path
       d="m 70.116565,98.430437 c 0.533257,-0.44378 1.469307,-2.20534 0.645317,-3.71592 -0.33204,-0.60872 -3.119127,-3.70379 -6.193544,-6.87791 l -5.589857,-5.77113 5.658957,-5.81345 c 3.112417,-3.19739 5.843764,-6.14956 6.069644,-6.56036 0.53593,-0.97466 0.28742,-2.08023 -0.686507,-3.05415 -0.41615,-0.41615 -1.10707,-0.82673 -1.53538,-0.91239 -1.74952,-0.3499 -2.28986,0.062 -9.212904,7.02314 -3.65724,3.67738 -6.841487,7.06719 -7.076097,7.5329 -0.50072,0.99396 -0.5418,2.62097 -0.0865,3.42453 0.59737,1.05421 14.329811,15.17056 15.001241,15.42062 1.46504,0.58758 2.47237,-0.25211 3.00563,-0.69588 z"
       style="fill:#000000;stroke-width:0.264583"
       id="path1063-3" /><path
       d="m 96.983489,98.894953 c -0.386879,-0.21013 -0.952425,-0.78497 -1.256769,-1.27741 -0.52078,-0.84264 -0.553358,-1.26552 -0.553358,-7.182887 0,-5.842137 0.03778,-6.348664 0.533337,-7.150494 1.458371,-2.35969 4.847091,-2.12681 6.146981,0.42243 0.39891,0.782317 0.46261,1.708697 0.46261,6.728064 0,5.014207 -0.0641,5.948427 -0.46261,6.741597 -0.92197,1.83508 -3.185337,2.63383 -4.870191,1.7187 z m 28.423731,0.011 c -0.47008,-0.20435 -1.09471,-0.76524 -1.38808,-1.24642 -0.50732,-0.83211 -0.53343,-1.31759 -0.53437,-9.936824 -5.3e-4,-4.984087 -0.0903,-9.064424 -0.19943,-9.067434 -0.10914,-0.003 -2.16298,2.023507 -4.56406,4.503367 l -4.36563,4.508847 -1.43468,-0.005 c -1.62874,-0.006 -1.37348,0.21462 -8.04337,-6.959617 l -3.12805,-3.364577 h -3.288093 c -2.604463,-0.21272 -3.288095,-0.0543 -3.288095,-5.053247 0,-5.660747 0.178514,-6.429607 1.713044,-7.377997 1.011436,-0.6251 2.754834,-0.69987 3.790194,-0.16255 0.63744,0.33081 4.89878,4.983517 9.21266,10.058754 0.85579,1.00683 1.8819,2.19746 2.28025,2.64584 l 0.72427,0.81524 0.99552,-1.18456 c 4.71795,-5.613837 10.49498,-11.902674 11.27327,-12.271994 1.41407,-0.67102 2.88802,-0.56456 3.89313,0.28118 1.59629,1.34319 1.57238,1.08863 1.56602,16.672591 -0.006,13.460001 -0.0333,14.290381 -0.51379,15.348851 -0.87177,1.92043 -2.75734,2.64085 -4.70071,1.79601 z"
       style="fill:#000000;stroke-width:0.264583"
       id="path691-6-7-7"
       sodipodi:nodetypes="sssssssscssssccsccssssscssscscc" /><path
       d="m 147.02098,97.770023 c 0.53326,-0.44378 1.46931,-2.20534 0.64532,-3.715917 -0.33204,-0.60872 -3.11913,-3.70379 -6.19355,-6.877907 l -5.58986,-5.771127 5.65896,-5.813447 c 3.11242,-3.197387 5.84377,-6.149557 6.06965,-6.560357 0.53593,-0.974657 0.28742,-2.080227 -0.68651,-3.054147 -0.41615,-0.41615 -1.10707,-0.82673 -1.53538,-0.91239 -1.74952,-0.3499 -2.28986,0.062 -9.21291,7.023137 -3.65724,3.677377 -6.84149,7.067184 -7.0761,7.532894 -0.50072,0.99396 -0.5418,2.62097 -0.0865,3.42453 0.59737,1.05421 14.32982,15.170551 15.00125,15.420611 1.46504,0.58758 2.47237,-0.25211 3.00563,-0.69588 z"
       style="fill:#000000;stroke-width:0.264583"
       id="path1063-3-9" /><path
       d="m 14.707182,150.71438 c -0.386879,-0.21013 -0.952425,-0.78497 -1.256769,-1.27741 -0.52078,-0.84264 -0.553358,-1.26552 -0.553358,-7.18289 0,-5.84214 0.03778,-6.34867 0.533337,-7.1505 1.458371,-2.35969 4.847091,-2.12681 6.146981,0.42243 0.39891,0.78232 0.46261,1.7087 0.46261,6.72807 0,5.01421 -0.0641,5.94843 -0.46261,6.7416 -0.92197,1.83508 -3.185337,2.63382 -4.870191,1.7187 z m 28.423719,0.011 c -0.47008,-0.20435 -1.09471,-0.76524 -1.38808,-1.24642 -0.50732,-0.83211 -0.53343,-1.31759 -0.53437,-9.93683 -5.3e-4,-4.98409 -0.0903,-9.06443 -0.19943,-9.06744 -0.10914,-0.003 -2.16298,2.02351 -4.564057,4.50337 l -4.365627,4.50885 -1.43468,-0.005 c -1.62874,-0.006 -1.37348,0.21462 -8.043367,-6.95962 l -3.128047,-3.36458 H 16.18515 c -2.604463,-0.21272 -3.288095,-0.0543 -3.288095,-5.05325 0,-5.66075 0.178514,-6.42961 1.713044,-7.378 1.011436,-0.6251 2.754834,-0.69987 3.790194,-0.16255 0.63744,0.33081 4.898777,4.98352 9.212657,10.05876 0.855787,1.00683 1.881897,2.19746 2.280247,2.64584 l 0.72427,0.81524 0.99552,-1.18456 c 4.717947,-5.61384 10.494974,-11.90268 11.273264,-12.272 1.414067,-0.67102 2.888017,-0.56456 3.893127,0.28118 1.59629,1.34319 1.57238,1.08863 1.56602,16.6726 -0.006,13.46001 -0.0333,14.29039 -0.51379,15.34886 -0.87177,1.92043 -2.75734,2.64085 -4.700707,1.79601 z"
       style="fill:#000000;stroke-width:0.264583"
       id="path691-6-7-9"
       sodipodi:nodetypes="sssssssscssssccsccssssscssscscc" /><path
       d="m 70.036313,149.9136 c 0.53326,-0.44378 1.46931,-2.20534 0.64532,-3.71592 -0.33204,-0.60872 -3.11913,-3.70379 -6.19354,-6.87791 l -5.58986,-5.77113 5.65896,-5.81345 c 3.11241,-3.19739 5.84376,-6.14956 6.06964,-6.56036 0.53593,-0.97466 0.28742,-2.08023 -0.68651,-3.05415 -0.41615,-0.41615 -1.10707,-0.82673 -1.53538,-0.91239 -1.74952,-0.3499 -2.28986,0.062 -9.2129,7.02314 -3.65724,3.67738 -6.84149,7.06719 -7.0761,7.5329 -0.50072,0.99396 -0.5418,2.62097 -0.0865,3.42453 0.59737,1.05421 14.32981,15.17056 15.00124,15.42062 1.46504,0.58758 2.47237,-0.25211 3.00563,-0.69588 z"
       style="fill:#000000;stroke-width:0.264583"
       id="path1063-3-1" /><path
       d="m 28.205816,198.38127 c -2.03512,-1.05629 -3.21758,-3.14173 -2.97943,-5.25466 0.33355,-2.95919 2.98205,-5.15919 5.80804,-4.82449 3.89999,0.46189 5.98114,5.01525 3.74587,8.19563 -1.07568,1.53052 -2.50732,2.28937 -4.32552,2.29278 -0.80625,0.002 -1.80919,-0.181 -2.24896,-0.40926 z"
       style="fill:#000000;stroke-width:0.264583"
       id="path1188" /><path
       d="m 74.993375,198.84621 c -0.38688,-0.21013 -0.95242,-0.78497 -1.25677,-1.27741 -0.520771,-0.84264 -0.553351,-1.26552 -0.553351,-7.18289 0,-5.84214 0.0378,-6.34867 0.533331,-7.1505 1.45838,-2.35969 4.84709,-2.12681 6.146987,0.42243 0.39891,0.78232 0.4626,1.7087 0.4626,6.72807 0,5.01421 -0.0641,5.94843 -0.4626,6.7416 -0.92198,1.83508 -3.185337,2.63382 -4.870197,1.7187 z m 28.423705,0.011 c -0.47008,-0.20435 -1.09471,-0.76524 -1.38808,-1.24642 -0.50732,-0.83211 -0.53343,-1.31759 -0.53437,-9.93683 -5.3e-4,-4.98409 -0.0903,-9.06443 -0.19943,-9.06744 -0.10914,-0.003 -2.162967,2.02351 -4.564057,4.50337 l -4.365617,4.50885 -1.43467,-0.005 c -1.628737,-0.006 -1.37348,0.21462 -8.043364,-6.95962 l -3.12805,-3.36458 h -3.288097 c -2.60446,-0.21272 -3.288091,-0.0543 -3.288091,-5.05325 0,-5.66075 0.17851,-6.42961 1.713041,-7.378 1.01144,-0.6251 2.75484,-0.69987 3.7902,-0.16255 0.637427,0.33081 4.898777,4.98352 9.212644,10.05876 0.85579,1.00683 1.881897,2.19746 2.280247,2.64584 l 0.72427,0.81524 0.99551,-1.18456 c 4.717947,-5.61384 10.494974,-11.90268 11.273264,-12.272 1.41407,-0.67102 2.88802,-0.56456 3.89312,0.28118 1.59629,1.34319 1.57238,1.08863 1.56602,16.6726 -0.006,13.46001 -0.0333,14.29039 -0.51379,15.34886 -0.87177,1.92043 -2.75733,2.64085 -4.7007,1.79601 z"
       style="fill:#000000;stroke-width:0.264583"
       id="path691-6-5-1"
       sodipodi:nodetypes="sssssssscssssccsccssssscssscscc" /><path
       d="m 88.666914,174.43437 c -2.03512,-1.05629 -3.21758,-3.14173 -2.97943,-5.25466 0.33355,-2.95919 2.98205,-5.15919 5.808037,-4.82449 3.899987,0.46189 5.981137,5.01525 3.745867,8.19563 -1.075677,1.53052 -2.507317,2.28937 -4.325517,2.29278 -0.80625,0.002 -1.809187,-0.181 -2.248957,-0.40926 z"
       style="fill:#000000;stroke-width:0.264583"
       id="path1188-8" /><path
       d="m 28.7237,150.68561 c -2.03512,-1.05629 -3.21758,-3.14173 -2.97943,-5.25466 0.33355,-2.95919 2.98205,-5.15919 5.80804,-4.82449 3.89999,0.46189 5.98114,5.01525 3.74587,8.19563 -1.07568,1.53052 -2.50732,2.28937 -4.32552,2.29278 -0.80625,0.002 -1.80919,-0.181 -2.24896,-0.40926 z"
       style="fill:#000000;stroke-width:0.264583"
       id="path1188-2" /><path
       d="m 14.707183,248.80803 c -0.386879,-0.21013 -0.952425,-0.78497 -1.256769,-1.27741 -0.52078,-0.84264 -0.553358,-1.26552 -0.553358,-7.18289 0,-5.84214 0.03778,-6.34867 0.533337,-7.1505 1.458371,-2.35969 4.847091,-2.12681 6.146981,0.42243 0.39891,0.78232 0.46261,1.7087 0.46261,6.72807 0,5.01421 -0.0641,5.94843 -0.46261,6.7416 -0.92197,1.83508 -3.185337,2.63382 -4.870191,1.7187 z m 28.423719,0.011 c -0.47008,-0.20435 -1.09471,-0.76524 -1.38808,-1.24642 -0.50732,-0.83211 -0.53343,-1.31759 -0.53437,-9.93683 -5.3e-4,-4.98409 -0.0903,-9.06443 -0.19943,-9.06744 -0.10914,-0.003 -2.16298,2.02351 -4.564057,4.50337 l -4.365627,4.50885 -1.43468,-0.005 c -1.62874,-0.006 -1.37348,0.21462 -8.043367,-6.95962 l -3.128047,-3.36458 h -3.288093 c -2.604463,-0.21272 -3.288095,-0.0543 -3.288095,-5.05325 0,-5.66075 0.178514,-6.42961 1.713044,-7.378 1.011436,-0.6251 2.754834,-0.69987 3.790194,-0.16255 0.63744,0.33081 4.898777,4.98352 9.212657,10.05876 0.855787,1.00683 1.881897,2.19746 2.280247,2.64584 l 0.72427,0.81524 0.99552,-1.18456 c 4.717947,-5.61384 10.494974,-11.90268 11.273264,-12.272 1.414067,-0.67102 2.888017,-0.56456 3.893127,0.28118 1.59629,1.34319 1.57238,1.08863 1.56602,16.6726 -0.006,13.46001 -0.0333,14.29039 -0.51379,15.34886 -0.87177,1.92043 -2.75734,2.64085 -4.700707,1.79601 z"
       style="fill:#000000;stroke-width:0.264583"
       id="path691-6-7-9-7"
       sodipodi:nodetypes="sssssssscssssccsccssssscssscscc" /><path
       d="m 64.744647,248.00725 c 0.53326,-0.44378 1.46931,-2.20534 0.64532,-3.71592 -0.33204,-0.60872 -3.11913,-3.70379 -6.19354,-6.87791 l -5.58986,-5.77113 5.65896,-5.81345 c 3.11241,-3.19739 5.84376,-6.14956 6.06964,-6.56036 0.53593,-0.97466 0.28742,-2.08023 -0.68651,-3.05415 -0.41615,-0.41615 -1.10707,-0.82673 -1.53538,-0.91239 -1.74952,-0.3499 -2.28986,0.062 -9.2129,7.02314 -3.65724,3.67738 -6.84149,7.06719 -7.0761,7.5329 -0.50072,0.99396 -0.5418,2.62097 -0.0865,3.42453 0.59737,1.05421 14.32981,15.17056 15.00124,15.42062 1.46504,0.58758 2.47237,-0.25211 3.00563,-0.69588 z"
       style="fill:#000000;stroke-width:0.264583"
       id="path1063-3-1-0" /><path
       d="m 28.723701,248.77926 c -2.03512,-1.05629 -3.21758,-3.14173 -2.97943,-5.25466 0.33355,-2.95919 2.98205,-5.15919 5.80804,-4.82449 3.89999,0.46189 5.98114,5.01525 3.74587,8.19563 -1.07568,1.53052 -2.50732,2.28937 -4.32552,2.29278 -0.80625,0.002 -1.80919,-0.181 -2.24896,-0.40926 z"
       style="fill:#000000;stroke-width:0.264583"
       id="path1188-2-9" /><path
       d="m 96.111539,269.89161 c -2.03512,-1.05629 -3.21758,-3.14173 -2.97943,-5.25466 0.33355,-2.95919 2.98205,-5.15919 5.80804,-4.82449 3.899991,0.46189 5.981141,5.01525 3.745871,8.19563 -1.07568,1.53052 -2.50732,2.28937 -4.325521,2.29278 -0.80625,0.002 -1.80919,-0.181 -2.24896,-0.40926 z"
       style="fill:#000000;stroke-width:0.264583"
       id="path1188-2-9-7" /><path
       d="m 153.19823,248.33851 c -0.38687,-0.21013 -0.95242,-0.78497 -1.25676,-1.27742 -0.52078,-0.84263 -0.55336,-1.26551 -0.55336,-7.18289 0,-5.84214 0.0378,-6.34867 0.53333,-7.15049 1.45838,-2.35969 4.8471,-2.12682 6.14699,0.42242 0.39891,0.78232 0.46261,1.7087 0.46261,6.72807 0,5.01421 -0.0641,5.94844 -0.46261,6.74161 -0.92197,1.83508 -3.18534,2.63382 -4.8702,1.7187 z m 28.42372,0.011 c -0.47008,-0.20434 -1.09471,-0.76524 -1.38808,-1.24642 -0.50732,-0.83211 -0.53343,-1.31759 -0.53437,-9.93683 -5.3e-4,-4.98409 -0.0903,-9.06442 -0.19943,-9.06744 -0.10914,-0.003 -2.16298,2.02351 -4.56405,4.50337 l -4.36563,4.50885 -1.43468,-0.005 c -1.62874,-0.006 -1.37348,0.21462 -8.04337,-6.95962 l -3.12804,-3.36458 h -3.2881 c -2.60446,-0.21271 -3.28809,-0.0543 -3.28809,-5.05325 0,-5.66075 0.17851,-6.4296 1.71304,-7.378 1.01144,-0.6251 2.75484,-0.69987 3.7902,-0.16255 0.63744,0.33081 4.89877,4.98352 9.21265,10.05876 0.85579,1.00683 1.8819,2.19746 2.28025,2.64584 l 0.72427,0.81524 0.99552,-1.18456 c 4.71795,-5.61384 10.49497,-11.90268 11.27326,-12.272 1.41407,-0.67102 2.88802,-0.56456 3.89313,0.28118 1.59629,1.34319 1.57238,1.08863 1.56602,16.6726 -0.006,13.46002 -0.0333,14.29039 -0.51379,15.34886 -0.87177,1.92044 -2.75734,2.64085 -4.70071,1.79601 z"
       style="fill:#000000;stroke-width:0.264583"
       id="path691-6-7-9-7-6"
       sodipodi:nodetypes="sssssssscssssccsccssssscssscscc" /><path
       d="m 203.2357,247.00839 c 0.53326,-0.44378 1.46931,-2.20533 0.64532,-3.71591 -0.33204,-0.60873 -3.11913,-3.7038 -6.19354,-6.87792 l -5.58986,-5.77113 5.65896,-5.81345 c 3.11241,-3.19739 5.84376,-6.14956 6.06964,-6.56036 0.53593,-0.97466 0.28742,-2.08023 -0.68651,-3.05415 -0.41615,-0.41615 -1.10707,-0.82673 -1.53538,-0.91239 -1.74952,-0.3499 -2.28986,0.062 -9.2129,7.02314 -3.65724,3.67738 -6.84149,7.0672 -7.0761,7.53291 -0.50072,0.99395 -0.5418,2.62097 -0.0865,3.42453 0.59737,1.05421 14.32981,15.17056 15.00124,15.42062 1.46504,0.58758 2.47237,-0.25211 3.00563,-0.69589 z"
       style="fill:#000000;stroke-width:0.264583"
       id="path1063-3-1-0-2" /><path
       d="m 166.87178,223.92668 c -2.03512,-1.05629 -3.21758,-3.14173 -2.97943,-5.25466 0.33355,-2.9592 2.98205,-5.1592 5.80804,-4.8245 3.89999,0.46189 5.98114,5.01526 3.74587,8.19563 -1.07568,1.53052 -2.50732,2.28937 -4.32552,2.29278 -0.80625,0.002 -1.80919,-0.181 -2.24896,-0.40925 z"
       style="fill:#000000;stroke-width:0.264583"
       id="path1188-2-9-6" /><path
       d="m 75.287008,248.80804 c -0.38688,-0.21013 -0.95243,-0.78497 -1.25677,-1.27741 -0.52078,-0.84264 -0.55336,-1.26552 -0.55336,-7.18289 0,-5.84214 0.0378,-6.34867 0.53334,-7.1505 1.45837,-2.35969 4.84709,-2.12681 6.14698,0.42243 0.39891,0.78232 0.46261,1.7087 0.46261,6.72807 0,5.01421 -0.0641,5.94843 -0.46261,6.7416 -0.92197,1.83508 -3.18534,2.63382 -4.87019,1.7187 z m 28.423722,0.011 c -0.47008,-0.20435 -1.09471,-0.76524 -1.38808,-1.24642 -0.50732,-0.83211 -0.53343,-1.31759 -0.53437,-9.93683 -5.3e-4,-4.98409 -0.0903,-9.06443 -0.19943,-9.06744 -0.10914,-0.003 -2.162982,2.02351 -4.564062,4.50337 l -4.36563,4.50885 -1.43468,-0.005 c -1.62874,-0.006 -1.37348,0.21462 -8.04336,-6.95962 l -3.12805,-3.36458 h -3.28809 c -2.60447,-0.21272 -3.2881,-0.0543 -3.2881,-5.05325 0,-5.66075 0.17851,-6.42961 1.71304,-7.378 1.01144,-0.6251 2.75484,-0.69987 3.7902,-0.16255 0.63744,0.33081 4.89878,4.98352 9.21266,10.05876 0.85578,1.00683 1.88189,2.19746 2.28024,2.64584 l 0.72427,0.81524 0.99552,-1.18456 c 4.71795,-5.61384 10.494982,-11.90268 11.273272,-12.272 1.41406,-0.67102 2.88801,-0.56456 3.89312,0.28118 1.59629,1.34319 1.57238,1.08863 1.56602,16.6726 -0.006,13.46001 -0.0333,14.29039 -0.51379,15.34886 -0.87177,1.92043 -2.75734,2.64085 -4.7007,1.79601 z"
       style="fill:#000000;stroke-width:0.264583"
       id="path691-6-7-9-7-3"
       sodipodi:nodetypes="sssssssscssssccsccssssscssscscc" /><path
       d="m 125.32447,248.00726 c 0.53326,-0.44378 1.46931,-2.20534 0.64532,-3.71592 -0.33204,-0.60872 -3.11913,-3.70379 -6.19354,-6.87791 l -5.58986,-5.77113 5.65896,-5.81345 c 3.11241,-3.19739 5.84376,-6.14956 6.06964,-6.56036 0.53593,-0.97466 0.28742,-2.08023 -0.68651,-3.05415 -0.41615,-0.41615 -1.10707,-0.82673 -1.53538,-0.91239 -1.74952,-0.3499 -2.28986,0.062 -9.2129,7.02314 -3.65724,3.67738 -6.84149,7.06719 -7.0761,7.5329 -0.50072,0.99396 -0.5418,2.62097 -0.0865,3.42453 0.59737,1.05421 14.32981,15.17056 15.00124,15.42062 1.46504,0.58758 2.47237,-0.25211 3.00563,-0.69588 z"
       style="fill:#000000;stroke-width:0.264583"
       id="path1063-3-1-0-6" /><path
       d="m 122.26597,236.73345 c -2.03512,-1.05629 -3.21758,-3.14173 -2.97943,-5.25466 0.33355,-2.95919 2.98205,-5.15919 5.80804,-4.82449 3.89999,0.46189 5.98114,5.01525 3.74587,8.19563 -1.07568,1.53052 -2.50732,2.28937 -4.32552,2.29278 -0.80625,0.002 -1.80919,-0.181 -2.24896,-0.40926 z"
       style="fill:#000000;stroke-width:0.264583"
       id="path1188-2-9-0" /><path
       d="m 125.18652,47.442081 c -0.38688,-0.21013 -0.95243,-0.78497 -1.25677,-1.277411 -0.52078,-0.84264 -0.55336,-1.26552 -0.55336,-7.18289 0,-5.84214 0.0378,-6.348669 0.53334,-7.1505 1.45837,-2.35969 4.84708,-2.12681 6.14698,0.42243 0.39891,0.78232 0.46261,1.7087 0.46261,6.72807 0,5.01421 -0.0641,5.948431 -0.46261,6.7416 -0.92198,1.83508 -3.18534,2.63382 -4.87019,1.718701 z m 28.42373,0.011 c -0.47008,-0.20435 -1.09471,-0.76524 -1.38808,-1.24642 -0.50732,-0.83211 -0.53343,-1.31759 -0.53437,-9.93683 -5.3e-4,-4.98409 -0.0903,-9.06443 -0.19943,-9.06744 -0.10914,-0.003 -2.16298,2.02351 -4.56407,4.50337 l -4.36562,4.50885 -1.43468,-0.005 c -1.62874,-0.006 -1.37348,0.214619 -8.04337,-6.95962 l -3.12805,-3.364581 h -3.2881 c -2.60446,-0.212719 -3.28809,-0.0543 -3.28809,-5.05325 0,-5.66075 0.17851,-6.42961 1.71304,-7.378 1.01144,-0.625099 2.75484,-0.69987 3.7902,-0.162549 0.63743,0.330809 4.89878,4.98352 9.21266,10.05876 0.85578,1.006829 1.88189,2.197459 2.28024,2.645839 l 0.72427,0.81524 0.99552,-1.18456 c 4.71796,-5.61384 10.49499,-11.90268 11.27328,-12.272 1.41407,-0.67102 2.88802,-0.56456 3.89313,0.28118 1.59629,1.34319 1.57238,1.08863 1.56602,16.6726 -0.006,13.46001 -0.0333,14.29039 -0.51379,15.34886 -0.87177,1.920431 -2.75734,2.64085 -4.70071,1.796011 z"
       style="fill:#000000;stroke-width:0.264583"
       id="path691-6-3"
       sodipodi:nodetypes="sssssssscssssccsccssssscssscscc" /><path
       d="m 176.88918,46.78779 c 1.62013,-0.8378 1.61243,-0.7843 1.62603,-11.315159 l 0.0124,-9.600451 2.0026,2.11667 c 1.10142,1.164161 3.08156,3.34495 4.40029,4.84618 1.31872,1.50123 2.72778,2.90022 3.13124,3.10885 0.97029,0.50176 2.47455,0.48154 3.27672,-0.0441 0.3554,-0.23287 2.31533,-2.30935 4.35541,-4.6144 2.04006,-2.30505 4.00619,-4.52553 4.36916,-4.93441 l 0.65994,-0.74342 -0.0191,9.60468 c -0.0167,8.36875 0.0352,9.68758 0.40298,10.24892 1.41083,2.15321 4.41681,2.17606 5.71713,0.0435 0.49516,-0.81207 0.51653,-1.42912 0.51747,-14.94462 0.001,-15.29563 0.004,-15.26787 -1.45784,-16.41739 -0.54897,-0.43182 -1.09194,-0.57359 -2.19684,-0.57359 h -1.46763 l -2.01391,2.05052 c -1.10765,1.12779 -3.97138,4.17339 -6.36383,6.768 l -4.34991,4.71748 -0.77105,-0.88102 c -2.78898,-3.18674 -10.38135,-11.42282 -11.04418,-11.98055 -0.64733,-0.5447 -1.08261,-0.67443 -2.26287,-0.67443 -1.30917,0 -1.55506,0.0937 -2.36095,0.89958 l -0.89959,0.89959 v 14.82282 14.82284 l 0.70603,0.839061 c 1.12086,1.33206 2.59912,1.67496 4.03032,0.934849 z"
       style="fill:#000000;stroke-width:0.264583"
       id="path1030-7" /><path
       d="m 175.22401,46.31715 c 0.53326,-0.44378 1.46931,-2.20534 0.64532,-3.71592 -0.33204,-0.608719 -3.11913,-3.703789 -6.19356,-6.87791 l -5.58986,-5.77113 5.65896,-5.813449 c 3.11243,-3.19739 5.84378,-6.149561 6.06966,-6.56036 0.53593,-0.97466 0.28742,-2.08023 -0.68651,-3.05415 -0.41615,-0.416151 -1.10707,-0.82673 -1.53539,-0.912391 -1.74952,-0.349899 -2.28986,0.062 -9.21291,7.023141 -3.65724,3.67738 -6.84149,7.06719 -7.0761,7.5329 -0.50072,0.99396 -0.5418,2.62097 -0.0865,3.424529 0.59737,1.05421 14.32982,15.170561 15.00125,15.42062 1.46505,0.587581 2.47238,-0.25211 3.00564,-0.69588 z"
       style="fill:#000000;stroke-width:0.264583"
       id="path1063-5" /><path
       d="m 14.265544,293.75682 c -0.38688,-0.21013 -0.95243,-0.78497 -1.25677,-1.27741 -0.52078,-0.84264 -0.55336,-1.26552 -0.55336,-7.18289 0,-5.84214 0.0378,-6.34867 0.53334,-7.1505 1.45837,-2.35969 4.84708,-2.12681 6.14698,0.42243 0.39891,0.78232 0.46261,1.7087 0.46261,6.72807 0,5.01421 -0.0641,5.94843 -0.46261,6.7416 -0.92198,1.83508 -3.18534,2.63382 -4.87019,1.7187 z m 28.42373,0.011 c -0.47008,-0.20435 -1.09471,-0.76524 -1.38808,-1.24642 -0.50732,-0.83211 -0.53343,-1.31759 -0.53437,-9.93683 -5.3e-4,-4.98409 -0.0903,-9.06443 -0.19943,-9.06744 -0.10914,-0.003 -2.16298,2.02351 -4.56407,4.50337 l -4.36562,4.50885 -1.43468,-0.005 c -1.62874,-0.006 -1.37348,0.21462 -8.04337,-6.95962 l -3.12805,-3.36458 h -3.2881 c -2.60446,-0.21272 -3.28809,-0.0543 -3.28809,-5.05325 0,-5.66075 0.17851,-6.42961 1.71304,-7.378 1.01144,-0.6251 2.75484,-0.69987 3.7902,-0.16255 0.63743,0.33081 4.89878,4.98352 9.21266,10.05876 0.85578,1.00683 1.88189,2.19746 2.28024,2.64584 l 0.72427,0.81524 0.99552,-1.18456 c 4.71796,-5.61384 10.49499,-11.90268 11.27328,-12.272 1.41407,-0.67102 2.88802,-0.56456 3.89313,0.28118 1.59629,1.34319 1.57238,1.08863 1.56602,16.6726 -0.006,13.46001 -0.0333,14.29039 -0.51379,15.34886 -0.87177,1.92043 -2.75734,2.64085 -4.70071,1.79601 z"
       style="fill:#000000;stroke-width:0.264583"
       id="path691-6-3-9"
       sodipodi:nodetypes="sssssssscssssccsccssssscssscscc" /><path
       d="m 45.677809,293.62853 c 0.53326,-0.44378 1.46931,-2.20534 0.64532,-3.71592 -0.33204,-0.60872 -3.11913,-3.70379 -6.19356,-6.87791 l -5.58986,-5.77113 c -5.191599,-3.94417 -6.216332,1.66576 -6.515639,4.11228 0.59737,1.05421 13.976669,12.6985 14.648099,12.94856 1.46505,0.58758 2.47238,-0.25211 3.00564,-0.69588 z"
       style="fill:#000000;stroke-width:0.264583"
       id="path1063-5-2"
       sodipodi:nodetypes="ssscccs" /><path
       d="m 82.791139,294.98412 c -0.38688,-0.21013 -0.95243,-0.78497 -1.25677,-1.27741 -0.52078,-0.84264 -0.55336,-1.26552 -0.55336,-7.18289 0,-5.84214 0.0378,-6.34867 0.53334,-7.1505 1.45837,-2.35969 4.84708,-2.12681 6.14698,0.42243 0.39891,0.78232 0.46261,1.7087 0.46261,6.72807 0,5.01421 -0.0641,5.94843 -0.46261,6.7416 -0.92198,1.83508 -3.18534,2.63382 -4.87019,1.7187 z m 28.423731,0.011 c -0.47008,-0.20435 -1.09471,-0.76524 -1.38808,-1.24642 -0.50732,-0.83211 -0.53343,-1.31759 -0.53437,-9.93683 -5.3e-4,-4.98409 -0.0903,-9.06443 -0.19943,-9.06744 -0.10914,-0.003 -2.16298,2.02351 -4.56407,4.50337 l -4.36562,4.50885 -1.434681,-0.005 c -1.62874,-0.006 -1.37348,0.21462 -8.04337,-6.95962 l -3.12805,-3.36458 h -3.2881 c -2.60446,-0.21272 -3.28809,-0.0543 -3.28809,-5.05325 0,-5.66075 0.17851,-6.42961 1.71304,-7.378 1.01144,-0.6251 2.75484,-0.69987 3.7902,-0.16255 0.63743,0.33081 4.89878,4.98352 9.21266,10.05876 0.85578,1.00683 1.88189,2.19746 2.28024,2.64584 l 0.72427,0.81524 0.99552,-1.18456 c 4.717961,-5.61384 10.494991,-11.90268 11.273281,-12.272 1.41407,-0.67102 2.88802,-0.56456 3.89313,0.28118 1.59629,1.34319 1.57238,1.08863 1.56602,16.6726 -0.006,13.46001 -0.0333,14.29039 -0.51379,15.34886 -0.87177,1.92043 -2.75734,2.64085 -4.70071,1.79601 z"
       style="fill:#000000;stroke-width:0.264583"
       id="path691-6-3-9-8"
       sodipodi:nodetypes="sssssssscssssccsccssssscssscscc" /><path
       d="m 114.2034,294.85583 c 0.53326,-0.44378 1.46931,-2.20534 0.64532,-3.71592 -0.33204,-0.60872 -3.11913,-3.70379 -6.19356,-6.87791 l -5.58986,-5.77113 c -5.191595,-3.94417 -6.216328,1.66576 -6.515635,4.11228 0.59737,1.05421 13.976665,12.6985 14.648095,12.94856 1.46505,0.58758 2.47238,-0.25211 3.00564,-0.69588 z"
       style="fill:#000000;stroke-width:0.264583"
       id="path1063-5-2-9"
       sodipodi:nodetypes="ssscccs" /></g></svg>
