<?xml version="1.0" encoding="UTF-8" standalone="no"?>
<!-- Created with Inkscape (http://www.inkscape.org/) -->

<svg
   width="210mm"
   height="297mm"
   viewBox="0 0 210 297"
   version="1.1"
   id="svg373"
   xml:space="preserve"
   inkscape:version="1.2.2 (b0a8486541, 2022-12-01)"
   sodipodi:docname="logo.svg"
   xmlns:inkscape="http://www.inkscape.org/namespaces/inkscape"
   xmlns:sodipodi="http://sodipodi.sourceforge.net/DTD/sodipodi-0.dtd"
   xmlns="http://www.w3.org/2000/svg"
   xmlns:svg="http://www.w3.org/2000/svg"><sodipodi:namedview
     id="namedview375"
     pagecolor="#ffffff"
     bordercolor="#666666"
     borderopacity="1.0"
     inkscape:showpageshadow="2"
     inkscape:pageopacity="0.0"
     inkscape:pagecheckerboard="0"
     inkscape:deskcolor="#d1d1d1"
     inkscape:document-units="mm"
     showgrid="false"
     inkscape:zoom="0.5297696"
     inkscape:cx="-268.04105"
     inkscape:cy="567.22772"
     inkscape:window-width="1920"
     inkscape:window-height="1022"
     inkscape:window-x="0"
     inkscape:window-y="0"
     inkscape:window-maximized="1"
     inkscape:current-layer="layer1" /><defs
     id="defs370" /><g
     inkscape:label="Layer 1"
     inkscape:groupmode="layer"
     id="layer1"><path
       style="fill:#000000;stroke-width:0.264583"
       d="m 108.48657,22.504146 c -59.503519,-12.339132 -29.751759,-6.169566 0,0 z m 18.87582,21.216217 c 1.68454,0 1.73417,-2.514349 0.91018,-4.024932 -0.33204,-0.608719 -3.11914,-3.70377 -6.19355,-6.877899 l -5.58984,-5.771136 5.65894,-5.813446 c 3.11242,-3.197396 5.84377,-6.149559 6.06965,-6.560362 0.53593,-0.97466 0.28742,-2.080224 -0.68651,-3.05415 -0.41615,-0.41615 -1.10707,-0.826725 -1.53538,-0.912386 -1.74952,-0.349904 -2.28986,0.062 -9.21289,7.023143 -3.65724,3.677377 -6.84149,7.067182 -7.0761,7.532898 -0.50072,0.993955 -0.5418,2.620966 -0.0865,3.424524 0.59737,1.054216 14.3298,15.170556 15.00123,15.420611 0.76543,0.285065 1.87675,-0.386865 2.74073,-0.386865 z m 10.46678,0.287662 c 0.45902,0 0.96735,-0.716859 1.24362,-1.124479 0.47098,-0.694891 0.5078,-1.467408 0.5902,-12.382793 0.0483,-6.402916 0.006,-13.103184 -0.0932,-14.889487 -0.1738,-3.117591 -0.21166,-3.278424 -0.94429,-4.01105 -1.00918,-1.009187 -2.52313,-1.272939 -3.80772,-0.66336 -1.77611,0.842819 -1.72499,0.350215 -1.72499,16.62004 v 14.677215 l 0.70603,0.839062 c 1.12086,1.33206 2.41908,0.934852 4.03032,0.934852 z m 11.90624,0 c 1.62014,-0.837805 1.61243,-0.784301 1.62604,-11.315151 l 0.0124,-9.600454 2.0026,2.116667 c 1.10143,1.164166 3.08156,3.34495 4.40029,4.846182 1.31872,1.501233 2.72778,2.900217 3.13124,3.108854 0.97029,0.501761 2.47456,0.481534 3.27672,-0.04406 0.3554,-0.232871 2.31534,-2.30935 4.35541,-4.6144 2.04007,-2.305049 4.00619,-4.525537 4.36916,-4.934415 l 0.65994,-0.743413 -0.0191,9.604671 c -0.0167,8.368749 0.0352,9.687573 0.40299,10.248918 1.41083,2.153208 4.41681,2.17606 5.71713,0.04346 0.49516,-0.812075 0.51652,-1.429128 0.51747,-14.94461 0.001,-15.295632 0.004,-15.267872 -1.45784,-16.417391 -0.54897,-0.431821 -1.09194,-0.57359 -2.19684,-0.57359 h -1.46763 l -2.01391,2.050521 c -1.10765,1.127786 -3.97138,4.173388 -6.36383,6.768 l -4.34991,4.717475 -0.77105,-0.881017 c -2.78898,-3.186737 -10.38135,-11.422823 -11.04418,-11.980554 -0.64733,-0.544697 -1.08261,-0.674425 -2.26287,-0.674425 -1.30917,0 -1.55506,0.09369 -2.36095,0.899583 l -0.89959,0.899583 v 14.822824 14.822826 l 0.70603,0.839062 c 1.12086,1.33206 2.59912,1.674956 4.03032,0.934852 z M 32.154283,44.285634 c -0.436562,-0.195776 -1.08792,-0.674677 -1.447465,-1.064223 -0.587965,-0.637029 -0.669862,-1.006334 -0.814237,-3.671755 -0.08829,-1.629918 -0.106675,-8.261767 -0.04086,-14.737444 0.131,-12.889659 0.117012,-12.777558 1.720097,-13.784763 0.981107,-0.616421 3.278365,-0.589828 4.048329,0.04687 0.579773,0.479423 7.095431,7.672886 9.796599,10.81571 1.131203,1.316159 2.122258,2.388679 2.202344,2.383377 0.08009,-0.0053 0.479005,-0.448858 0.886484,-0.985674 0.912559,-1.202205 6.221069,-7.060961 9.214192,-10.169268 1.77937,-1.84785 2.410838,-2.335602 3.206218,-2.476516 1.279954,-0.226764 2.086893,-0.01199 3.073307,0.818036 1.338173,1.125998 1.405197,1.997241 1.312125,17.056396 -0.07953,12.868674 -0.112134,13.667234 -0.586526,14.367168 -0.655804,0.967597 -1.873747,1.579991 -3.142319,1.579991 -1.379738,0 -2.258263,-0.523946 -2.86164,-1.70666 -0.467048,-0.91549 -0.505188,-1.650825 -0.505188,-9.739963 v -8.749709 l -0.745873,0.551447 c -0.410229,0.303294 -2.106869,2.053031 -3.770313,3.888303 -3.683202,4.063667 -4.676715,4.836506 -6.217497,4.836506 -0.621109,0 -1.328274,-0.07636 -1.571479,-0.169685 -0.243205,-0.09333 -2.292178,-2.206686 -4.553273,-4.696354 -2.261095,-2.489668 -4.185205,-4.5564 -4.275801,-4.592738 -0.0906,-0.03634 -0.164722,3.892725 -0.164722,8.73125 0,9.677363 -0.06101,10.110242 -1.552485,11.015395 -1.170998,0.71066 -2.286362,0.868516 -3.210015,0.454305 z m 38.728874,-0.39022 c -1.490697,-1.176973 -1.555755,-1.619936 -1.545685,-10.524231 0.01061,-9.373221 0.223425,-11.162164 1.669555,-14.033793 2.271189,-4.509978 6.301354,-7.682744 11.235764,-8.845402 0.801899,-0.188947 4.511939,-0.277072 10.490726,-0.24919 8.552053,0.03989 9.310743,0.08072 10.054163,0.541126 1.79378,1.110906 1.73014,0.498038 1.73014,16.661937 0,12.524247 -0.0568,14.700461 -0.40135,15.366676 -1.10536,2.137524 -4.728172,2.088468 -5.8553,-0.07928 -0.401084,-0.771387 -0.438554,-2.085033 -0.381436,-13.372898 l 0.06334,-12.517482 -7.097522,0.08572 c -6.672624,0.08059 -7.187832,0.121991 -8.606077,0.6916 -2.768516,1.111916 -4.945042,3.608532 -5.749105,6.594593 -0.189907,0.705258 -0.305398,4.001805 -0.315008,8.991404 -0.0083,4.332843 -0.122274,8.302371 -0.253174,8.821171 -0.360431,1.428493 -1.308042,2.166959 -2.953893,2.301941 -1.120246,0.09188 -1.52623,0.0074 -2.085139,-0.433887 z m 13.91939,-7.903379 c -2.035124,-1.05628 -3.217587,-3.14172 -2.97943,-5.25465 0.333545,-2.95919 2.982049,-5.15919 5.80804,-4.82449 3.899992,0.46189 5.981136,5.01525 3.745872,8.19563 -1.075684,1.53052 -2.507323,2.28936 -4.325524,2.29277 -0.806246,0.002 -1.809186,-0.181 -2.248958,-0.40926 z"
       id="path489"
       sodipodi:nodetypes="ccssscsssssscsssssccssscssscscsssssscccsccscsscsssscccsccssssssssssscssssscssssssssssssssssscsscssscsssssssscs" /><path
       d="m 30.095664,91.975569 c -0.386879,-0.21013 -0.952425,-0.78497 -1.256769,-1.27741 -0.52078,-0.84264 -0.553358,-1.26552 -0.553358,-7.182887 0,-5.842137 0.03778,-6.348664 0.533337,-7.150494 1.458371,-2.35969 4.847086,-2.12681 6.146981,0.42243 0.398912,0.782317 0.462608,1.708697 0.462608,6.728064 0,5.014207 -0.06411,5.948427 -0.462608,6.741597 -0.921975,1.83508 -3.185337,2.63382 -4.870191,1.7187 z m 28.42373,0.011 c -0.47008,-0.20435 -1.09471,-0.76524 -1.38808,-1.24642 -0.50732,-0.83211 -0.53343,-1.31759 -0.53437,-9.936824 -5.3e-4,-4.984087 -0.0903,-9.064433 -0.19943,-9.067443 -0.10914,-0.003 -2.162969,2.023516 -4.564062,4.503376 l -4.365626,4.508847 -1.434679,-0.005 c -1.628741,-0.006 -1.373503,0.21464 -8.043369,-6.959617 l -3.12805,-3.364586 h -3.288096 -3.288095 v -5.05325 c 0,-5.66075 0.178514,-6.42961 1.713044,-7.378 1.011436,-0.6251 2.754836,-0.69987 3.790198,-0.16255 0.637432,0.33081 4.898776,4.98352 9.212655,10.05876 0.855787,1.00683 1.881897,2.19745 2.280246,2.64584 l 0.72427,0.81524 0.995521,-1.18456 c 4.71795,-5.61385 10.494983,-11.90268 11.273273,-12.272 1.41407,-0.67102 2.88802,-0.56456 3.89313,0.28118 1.59629,1.34319 1.57238,1.08863 1.56602,16.672606 -0.006,13.460001 -0.0333,14.290381 -0.51379,15.348851 -0.87177,1.92043 -2.75734,2.64085 -4.70071,1.79601 z m 68.031486,0.0264 c -0.45161,-0.20334 -3.71508,-3.29983 -7.25216,-6.881077 l -6.43106,-6.511387 h -7.45923 c -7.307166,0 -7.477556,-0.0122 -8.358256,-0.59881 -2.08371,-1.387877 -2.30168,-3.749327 -0.51132,-5.539677 0.988,-0.987996 1.03985,-1.005256 3.02075,-1.005256 h 2.015506 v -3.58434 -3.58434 l -9.458846,0.0786 -9.45886,0.0786 -1.45583,0.68297 c -0.8007,0.37563 -2.02594,1.25309 -2.72275,1.9499 -2.55822,2.55821 -3.08627,4.62571 -3.09286,12.109553 l -0.005,5.217417 15.54427,0.0742 c 14.762506,0.0705 15.581526,0.0995 16.285376,0.57656 2.24697,1.52292 1.9042,5.045047 -0.6141,6.310287 -0.84838,0.42624 -2.27301,0.46261 -18.118676,0.46261 -18.99212,0 -18.29016,0.06 -19.56036,-1.67275 -0.52897,-0.72162 -0.54797,-1.06111 -0.54797,-9.789584 0,-10.097473 0.0455,-10.428463 1.93445,-14.069123 1.29496,-2.49585 4.81405,-6.02131 7.19367,-7.20669 3.49776,-1.74238 4.81484,-1.91347 16.13587,-2.09614 11.303876,-0.1824 12.662716,-0.0666 13.822636,1.17749 1.21319,1.30125 1.26231,1.59619 1.26231,7.57878 l 2e-5,5.70594 h 1.71257 1.71257 l 6.55499,-6.64164 c 3.60524,-3.65291 6.85352,-6.79603 7.21841,-6.98472 0.66078,-0.34171 1.60934,-0.47791 2.95711,-0.42459 0.41346,0.0163 1.10243,0.39931 1.65364,0.91917 0.85409,0.80551 0.94535,1.02796 0.9498,2.31511 l 0.005,1.42396 -6.25937,6.16488 -6.25937,6.164876 0.76204,0.84658 c 0.41912,0.46562 3.22274,3.347397 6.23027,6.403957 4.5429,4.616967 5.49887,5.720737 5.64932,6.522714 0.48988,2.61129 -2.5845,4.93821 -5.05487,3.8259 z m 11.88031,-0.15258 c -1.71271,-1.04431 -1.66649,-0.57821 -1.66649,-16.807111 0,-12.200296 0.0649,-14.861366 0.38095,-15.617766 1.03899,-2.48664 4.94058,-2.6706 6.07201,-0.28629 0.39563,0.83374 0.43176,2.41107 0.36641,15.997776 l -0.0725,15.072821 -0.66146,0.70777 c -1.40257,1.50077 -2.95125,1.82768 -4.41891,0.93279 z m 10.45985,0.0664 c -0.38826,-0.24089 -0.95381,-0.87901 -1.25677,-1.41805 -0.53982,-0.96049 -0.55083,-1.27617 -0.55083,-15.787741 V 59.913342 l 0.60325,-0.89517 c 0.99782,-1.48066 2.51456,-1.92568 4.36486,-1.28066 0.83727,0.29187 3.24406,2.89559 9.02479,9.76322 1.65698,1.96853 3.09972,3.61358 3.2061,3.65566 0.10638,0.0421 1.2584,-1.20807 2.56005,-2.77813 4.74605,-5.72471 9.03377,-10.32719 9.90331,-10.63032 2.09491,-0.73029 3.86601,-0.009 4.58043,1.86631 0.39048,1.02479 0.42892,2.68183 0.36116,15.566666 -0.0727,13.826101 -0.0974,14.455411 -0.59922,15.285291 -0.69662,1.152 -2.49877,2.02499 -3.71085,1.79761 -0.50026,-0.0939 -1.25388,-0.46037 -1.67473,-0.81448 -1.35634,-1.1413 -1.47084,-2.16291 -1.27783,-11.401374 0.0954,-4.568647 0.084,-8.306633 -0.0255,-8.306633 -0.10945,0 -1.92342,1.857116 -4.03104,4.126926 -2.10763,2.269807 -4.15488,4.293877 -4.54946,4.497917 -0.83288,0.4307 -2.41464,0.48655 -3.11806,0.11008 -0.26813,-0.14349 -2.28004,-2.21987 -4.47092,-4.614177 l -3.98343,-4.353266 -0.0757,9.355663 -0.0757,9.355674 -0.66145,0.7076 c -1.36286,1.45793 -3.16416,1.85409 -4.5424,0.99902 z M 83.715744,78.998995 c -2.03513,-1.05628 -3.21759,-3.141717 -2.97943,-5.254647 0.33354,-2.959186 2.98205,-5.159186 5.80804,-4.824486 3.89999,0.46189 5.98113,5.015246 3.74587,8.195626 -1.07569,1.530517 -2.50732,2.289357 -4.32553,2.292767 -0.80624,0.002 -1.80918,-0.181 -2.24895,-0.40926 z"
       style="fill:#000000;stroke-width:0.264583"
       id="path588"
       sodipodi:nodetypes="sssssssscssssccscccssssscssscscccscsssscccccssccccssssssssscccsscsccccsssccssssscssscsscsssssscsscscssssscccscccssscc" /><path
       d="m 30.095663,235.33561 c -0.386879,-0.21013 -0.952425,-0.78497 -1.256769,-1.27741 -0.52078,-0.84264 -0.553358,-1.26552 -0.553358,-7.18289 0,-5.84214 0.03778,-6.34867 0.533337,-7.1505 1.458371,-2.35969 4.847086,-2.12681 6.146981,0.42243 0.398912,0.78232 0.462608,1.7087 0.462608,6.72807 0,5.01421 -0.06411,5.94843 -0.462608,6.7416 -0.921975,1.83508 -3.185337,2.63382 -4.870191,1.7187 z m 28.42373,0.011 c -0.47008,-0.20435 -1.09471,-0.76524 -1.38808,-1.24642 -0.50732,-0.83211 -0.53343,-1.31759 -0.53437,-9.93683 -5.3e-4,-4.98409 -0.0903,-9.06443 -0.19943,-9.06744 -0.10914,-0.003 -2.162969,2.02351 -4.564062,4.50337 l -4.365626,4.50885 -1.434679,-0.005 c -1.628741,-0.006 -1.373503,0.21464 -8.043369,-6.95962 l -3.12805,-3.36458 h -3.288096 c -2.604463,-0.21272 -3.288095,-0.0543 -3.288095,-5.05325 0,-5.66075 0.178514,-6.42961 1.713044,-7.378 1.011436,-0.6251 2.754836,-0.69987 3.790198,-0.16255 0.637432,0.33081 4.898776,4.98352 9.212655,10.05876 0.855787,1.00683 1.881897,2.19745 2.280246,2.64584 l 0.72427,0.81524 0.995521,-1.18456 c 4.71795,-5.61385 10.494983,-11.90268 11.273273,-12.272 1.41407,-0.67102 2.88802,-0.56456 3.89313,0.28118 1.59629,1.34319 1.57238,1.08863 1.56602,16.6726 -0.006,13.46001 -0.0333,14.29039 -0.51379,15.34886 -0.87177,1.92043 -2.75734,2.64085 -4.70071,1.79601 z m 68.031497,0.0264 c -0.45161,-0.20334 -3.71508,-3.29983 -7.25216,-6.88108 l -6.43106,-6.51139 h -7.45924 c -7.307167,0 -7.477557,-0.0122 -8.358257,-0.59881 -2.08371,-1.38788 -2.30168,-3.74933 -0.51132,-5.53968 0.988,-0.98799 1.03985,-1.00525 3.02075,-1.00525 h 2.015507 v -3.58434 -3.58434 l -9.458847,0.0786 -9.45886,0.0786 -1.45583,0.68297 c -0.8007,0.37563 -2.02594,1.25309 -2.72275,1.9499 -2.55822,2.55821 -3.08627,4.62571 -3.09286,12.10955 l -0.005,5.21742 15.54427,0.0742 c 14.762507,0.0705 15.581537,0.0995 16.285387,0.57656 2.24697,1.52292 1.9042,5.04505 -0.6141,6.31029 -0.84839,0.42624 -2.27302,0.46261 -18.118687,0.46261 -18.99212,0 -18.29016,0.06 -19.56036,-1.67275 -0.52897,-0.72162 -0.54797,-1.06111 -0.54797,-9.78959 0,-10.09747 0.0455,-10.42846 1.93445,-14.06912 1.29496,-2.49585 4.81405,-6.02131 7.19367,-7.20669 3.49776,-1.74238 4.81484,-1.91347 16.13587,-2.09614 11.303877,-0.1824 12.662727,-0.0666 13.822647,1.17749 1.21319,1.30125 1.26231,1.59619 1.26231,7.57878 l 2e-5,5.70594 h 1.71257 1.71257 l 6.55499,-6.64164 c 3.60524,-3.65291 6.85352,-6.79603 7.21841,-6.98472 0.66078,-0.34171 1.60934,-0.47791 2.95711,-0.42459 0.41346,0.0163 1.10243,0.39931 1.65364,0.91917 0.85409,0.80551 0.94535,1.02796 0.9498,2.31511 l 0.005,1.42396 -6.25937,6.16488 -6.25937,6.16487 0.76204,0.84658 c 0.41912,0.46562 3.22274,3.3474 6.23027,6.40396 4.5429,4.61697 5.49887,5.72074 5.64932,6.52272 0.48988,2.61129 -2.5845,4.93821 -5.05487,3.8259 z m 11.88031,-0.15258 c -1.71271,-1.04431 -1.66649,-0.57821 -1.66649,-16.80712 0,-12.20029 0.0649,-14.86136 0.38095,-15.61776 1.03899,-2.48664 4.94058,-2.6706 6.07201,-0.28629 0.39563,0.83374 0.43176,2.41107 0.36641,15.99777 l -0.0725,15.07283 -0.66146,0.70777 c -1.40257,1.50077 -2.95125,1.82768 -4.41891,0.93279 z m 10.45985,0.0664 c -0.38826,-0.24089 -0.95381,-0.87901 -1.25677,-1.41805 -0.53982,-0.96049 -0.55083,-1.27617 -0.55083,-15.78775 v -14.80765 l 0.60325,-0.89517 c 0.99782,-1.48066 2.51456,-1.92568 4.36486,-1.28066 0.83727,0.29187 3.24406,2.89559 9.02479,9.76322 1.65698,1.96853 3.09972,3.61358 3.2061,3.65566 0.10638,0.0421 1.2584,-1.20807 2.56005,-2.77813 4.74605,-5.72471 9.03377,-10.32719 9.90331,-10.63032 2.09491,-0.73029 3.86601,-0.009 4.58043,1.86631 0.39048,1.02479 0.42892,2.68183 0.36116,15.56666 -0.0727,13.82611 -0.0974,14.45542 -0.59922,15.2853 -0.69662,1.152 -2.49877,2.02499 -3.71085,1.79761 -0.50026,-0.0939 -1.25388,-0.46037 -1.67473,-0.81448 -1.35634,-1.1413 -1.47084,-2.16291 -1.27783,-11.40138 0.0954,-4.56865 0.084,-8.30663 -0.0255,-8.30663 -0.10945,0 -1.92342,1.85711 -4.03104,4.12692 -2.10763,2.26981 -4.15488,4.29388 -4.54946,4.49792 -0.83288,0.4307 -2.41464,0.48655 -3.11806,0.11008 -0.26813,-0.14349 -2.28004,-2.21987 -4.47092,-4.61418 l -3.98343,-4.35326 -0.0757,9.35566 -0.0757,9.35568 -0.66145,0.7076 c -1.36286,1.45793 -3.16416,1.85409 -4.5424,0.99902 z m -65.175307,-12.9278 c -2.03513,-1.05628 -3.21759,-3.14172 -2.97943,-5.25465 0.33354,-2.95918 2.98205,-5.15918 5.80804,-4.82448 3.89999,0.46189 5.98113,5.01524 3.74587,8.19562 -1.07569,1.53052 -2.50732,2.28936 -4.32553,2.29277 -0.80624,0.002 -1.80918,-0.181 -2.24895,-0.40926 z"
       style="fill:#000000;stroke-width:0.264583"
       id="path588-3"
       sodipodi:nodetypes="sssssssscssssccscccsssscssscscccscsssscccccssccccssssssssscccsscsccccsssccssssscssscsscsssssscsscscssssscccscccssscc" /><path
       d="m 108.62341,117.07386 c -59.503519,-12.33914 -29.75176,-6.16957 0,0 z m 18.87583,21.21622 c 1.68454,0 1.73417,-2.51435 0.91018,-4.02493 -0.33204,-0.60872 -3.11914,-3.70377 -6.19355,-6.87791 l -5.58985,-5.77113 5.65895,-5.81345 c 3.11242,-3.1974 5.84377,-6.14956 6.06965,-6.56036 0.53593,-0.97466 0.28742,-2.08023 -0.68651,-3.05415 -0.41615,-0.41615 -1.10707,-0.82673 -1.53538,-0.91239 -1.74952,-0.3499 -2.28986,0.062 -9.2129,7.02314 -3.65724,3.67738 -6.84149,7.06719 -7.0761,7.5329 -0.50072,0.99396 -0.5418,2.62097 -0.0865,3.42453 0.59737,1.05421 14.32981,15.17056 15.00124,15.42062 0.76543,0.28506 1.87675,-0.38687 2.74073,-0.38687 z m 10.46679,0.28766 c 0.45902,0 0.96735,-0.71685 1.24361,-1.12447 0.47098,-0.6949 0.50781,-1.46741 0.59021,-12.38281 0.0483,-6.40291 0.006,-13.10318 -0.0932,-14.88949 -0.1738,-3.11759 -0.21166,-3.27842 -0.94429,-4.01105 -1.00918,-1.00918 -2.52313,-1.27293 -3.80772,-0.66336 -1.77612,0.84282 -1.725,0.35022 -1.725,16.62005 v 14.67722 l 0.70604,0.83906 c 1.12085,1.33206 2.41908,0.93486 4.03031,0.93485 z m 11.90624,0 c 1.62013,-0.8378 1.61243,-0.7843 1.62603,-11.31516 l 0.0124,-9.60045 2.0026,2.11667 c 1.10142,1.16416 3.08156,3.34495 4.40029,4.84618 1.31872,1.50123 2.72778,2.90022 3.13124,3.10885 0.97029,0.50176 2.47455,0.48154 3.27672,-0.0441 0.3554,-0.23287 2.31533,-2.30935 4.35541,-4.6144 2.04006,-2.30505 4.00619,-4.52553 4.36916,-4.93441 l 0.65994,-0.74342 -0.0191,9.60468 c -0.0167,8.36875 0.0352,9.68758 0.40298,10.24892 1.41083,2.15321 4.41681,2.17606 5.71713,0.0435 0.49516,-0.81207 0.51653,-1.42912 0.51747,-14.94462 10e-4,-15.29563 0.004,-15.26787 -1.45784,-16.41739 -0.54897,-0.43182 -1.09194,-0.57359 -2.19684,-0.57359 h -1.46763 l -2.01391,2.05052 c -1.10765,1.12779 -3.97138,4.17339 -6.36383,6.768 l -4.34991,4.71748 -0.77105,-0.88102 c -2.78898,-3.18674 -10.38135,-11.42282 -11.04418,-11.98055 -0.64733,-0.5447 -1.08261,-0.67443 -2.26287,-0.67443 -1.30917,0 -1.55506,0.0937 -2.36095,0.89958 l -0.89959,0.89959 v 14.82282 14.82284 l 0.70603,0.83906 c 1.12086,1.33206 2.59912,1.67496 4.03032,0.93485 z m -78.852279,-0.11261 c -1.49069,-1.17697 -1.55575,-1.61993 -1.54568,-10.52424 0.0106,-9.37322 0.22342,-11.16216 1.66955,-14.03379 2.271189,-4.50998 6.301359,-7.68275 11.235769,-8.8454 0.8019,-0.18895 4.51194,-0.27708 10.49072,-0.24919 8.55206,0.0399 9.31074,0.0807 10.05416,0.54112 1.79378,1.11091 1.73014,0.49804 1.73014,16.66194 0,12.52426 -0.0568,14.70047 -0.40135,15.36669 -1.10536,2.13752 -4.72817,2.08846 -5.85529,-0.0793 -0.40109,-0.77139 -0.43856,-2.08504 -0.38144,-13.37291 l 0.0633,-12.51748 -7.09752,0.0857 c -6.67263,0.0806 -7.18783,0.12199 -8.60608,0.6916 -2.76852,1.11191 -4.94504,3.60853 -5.7491,6.59459 -0.18991,0.70526 -0.3054,4.0018 -0.31501,8.9914 -0.008,4.33286 -0.12228,8.30238 -0.25318,8.82118 -0.36043,1.4285 -1.30804,2.16696 -2.953889,2.30195 -1.12024,0.0919 -1.52623,0.007 -2.08514,-0.43389 z m 13.919389,-7.90338 c -2.03512,-1.05629 -3.21758,-3.14173 -2.97943,-5.25466 0.33355,-2.95919 2.98205,-5.15919 5.80804,-4.82449 3.89999,0.46189 5.98114,5.01525 3.74587,8.19563 -1.07568,1.53052 -2.50732,2.28937 -4.32552,2.29278 -0.80625,0.002 -1.80919,-0.181 -2.24896,-0.40926 z m -53.453849,9.08468 c -0.386879,-0.21013 -0.952425,-0.78497 -1.256769,-1.27741 -0.520779,-0.84264 -0.553357,-1.26552 -0.553357,-7.18289 0,-5.84216 0.03778,-6.34869 0.533336,-7.15052 1.458371,-2.35969 4.847087,-2.12681 6.146982,0.42243 0.398912,0.78232 0.462608,1.7087 0.462608,6.72809 0,5.01421 -0.06411,5.94843 -0.462608,6.7416 -0.921975,1.83508 -3.185338,2.63382 -4.870192,1.7187 z m 28.423732,0.011 c -0.47008,-0.20435 -1.09471,-0.76524 -1.38808,-1.24642 -0.50732,-0.83211 -0.53343,-1.31759 -0.53437,-9.93685 -5.3e-4,-4.98409 -0.0903,-9.06443 -0.19943,-9.06744 -0.10914,-0.003 -2.162972,2.02351 -4.564062,4.50337 l -4.365626,4.50885 -1.434679,-0.005 c -1.628741,-0.006 -1.37348,0.21462 -8.043369,-6.95962 l -3.128051,-3.36458 h -3.288097 -3.288094 v -5.05325 c 0,-5.66075 0.178513,-6.42961 1.713043,-7.378 1.011436,-0.6251 2.754837,-0.69987 3.790199,-0.16255 0.637432,0.33081 4.898777,4.98352 9.212656,10.05876 0.855787,1.00683 1.881893,2.19745 2.280246,2.64584 l 0.72427,0.81524 0.995521,-1.18456 c 4.717955,-5.61385 10.494983,-11.90268 11.273273,-12.272 1.41407,-0.67102 2.88802,-0.56456 3.89313,0.28118 1.59629,1.34319 1.57238,1.08863 1.56602,16.6726 -0.006,13.46003 -0.0333,14.29041 -0.51379,15.34888 -0.87177,1.92043 -2.75734,2.64085 -4.70071,1.79601 z"
       style="fill:#000000;stroke-width:0.264583"
       id="path691"
       sodipodi:nodetypes="ccssscsssssscsssssscssscssssscsssssscccsccscsscsssscccssscsssssscscccsscssccsssscssssssssscssssccscccssssscssscscc" /><path
       d="m 108.92986,260.4339 c -59.503523,-12.33914 -29.751764,-6.16957 0,0 z m 18.87584,21.21622 c 1.68454,0 1.73417,-2.51435 0.91018,-4.02493 -0.33204,-0.60872 -3.11914,-3.70377 -6.19355,-6.87791 l -5.58986,-5.77113 5.65896,-5.81345 c 3.11242,-3.1974 5.84377,-6.14956 6.06965,-6.56036 0.53593,-0.97466 0.28742,-2.08023 -0.68651,-3.05415 -0.41615,-0.41615 -1.10707,-0.82673 -1.53538,-0.91239 -1.74952,-0.3499 -2.28986,0.062 -9.21291,7.02314 -3.65724,3.67738 -6.84149,7.06719 -7.0761,7.5329 -0.50072,0.99396 -0.5418,2.62097 -0.0865,3.42453 0.59737,1.05421 14.32982,15.17056 15.00125,15.42062 0.76543,0.28506 1.87675,-0.38687 2.74073,-0.38687 z m 10.4668,0.28766 c 0.45902,0 0.96735,-0.71685 1.24361,-1.12447 0.47098,-0.6949 0.50781,-1.46741 0.59021,-12.38281 0.0483,-6.40291 0.006,-13.10318 -0.0932,-14.88949 -0.1738,-3.11759 -0.21166,-3.27842 -0.94429,-4.01105 -1.00918,-1.00918 -2.52313,-1.27293 -3.80772,-0.66336 -1.77613,0.84282 -1.72501,0.35022 -1.72501,16.62005 v 14.67722 l 0.70605,0.83906 c 1.12085,1.33206 2.41908,0.93486 4.03031,0.93485 z m 11.90624,0 c 1.62013,-0.8378 1.61243,-0.7843 1.62603,-11.31516 l 0.0124,-9.60045 2.0026,2.11667 c 1.10142,1.16416 3.08156,3.34495 4.40029,4.84618 1.31872,1.50123 2.72778,2.90022 3.13124,3.10885 0.97029,0.50176 2.47455,0.48154 3.27672,-0.0441 0.3554,-0.23287 2.31533,-2.30935 4.35541,-4.6144 2.04006,-2.30505 4.00619,-4.52553 4.36916,-4.93441 l 0.65994,-0.74342 -0.0191,9.60468 c -0.0167,8.36875 0.0352,9.68758 0.40298,10.24892 1.41083,2.15321 4.41681,2.17606 5.71713,0.0435 0.49516,-0.81207 0.51653,-1.42912 0.51747,-14.94462 0.001,-15.29563 0.004,-15.26787 -1.45784,-16.41739 -0.54897,-0.43182 -1.09194,-0.57359 -2.19684,-0.57359 h -1.46763 l -2.01391,2.05052 c -1.10765,1.12779 -3.97138,4.17339 -6.36383,6.768 l -4.34991,4.71748 -0.77105,-0.88102 c -2.78898,-3.18674 -10.38135,-11.42282 -11.04418,-11.98055 -0.64733,-0.5447 -1.08261,-0.67443 -2.26287,-0.67443 -1.30917,0 -1.55506,0.0937 -2.36095,0.89958 l -0.89959,0.89959 v 14.82282 14.82284 l 0.70603,0.83906 c 1.12086,1.33206 2.59912,1.67496 4.03032,0.93485 z m -78.852303,-0.11261 c -1.49069,-1.17697 -1.55575,-1.61993 -1.54568,-10.52424 0.0106,-9.37322 0.22342,-11.16216 1.66955,-14.03379 2.271189,-4.50998 6.301359,-7.68275 11.235769,-8.8454 0.8019,-0.18895 4.51194,-0.27708 10.49072,-0.24919 8.552054,0.0399 9.310744,0.0807 10.054164,0.54112 1.79378,1.11091 1.73014,0.49804 1.73014,16.66194 0,12.52426 -0.0568,14.70047 -0.40135,15.36669 -1.10536,2.13752 -4.728177,2.08846 -5.855297,-0.0793 -0.40109,-0.77139 -0.43856,-2.08504 -0.38144,-13.37291 l 0.0633,-12.51748 -7.097517,0.0857 c -6.67263,0.0806 -7.18783,0.12199 -8.60608,0.6916 -2.76852,1.11191 -4.94504,3.60853 -5.7491,6.59459 -0.18991,0.70526 -0.3054,4.0018 -0.31501,8.9914 -0.008,4.33286 -0.12228,8.30238 -0.25318,8.82118 -0.36043,1.4285 -1.30804,2.16696 -2.953889,2.30195 -1.12024,0.0919 -1.52623,0.007 -2.08514,-0.43389 z m 13.919389,-7.90338 c -2.03512,-1.05629 -3.21758,-3.14173 -2.97943,-5.25466 0.33355,-2.95919 2.98205,-5.15919 5.80804,-4.82449 3.89999,0.46189 5.98114,5.01525 3.74587,8.19563 -1.07568,1.53052 -2.50732,2.28937 -4.32552,2.29278 -0.80625,0.002 -1.80919,-0.181 -2.24896,-0.40926 z m -54.066762,8.95375 c -0.386879,-0.21013 -0.952425,-0.78497 -1.256769,-1.27741 -0.52078,-0.84264 -0.553358,-1.26552 -0.553358,-7.18289 0,-5.84214 0.03778,-6.34867 0.533337,-7.1505 1.458371,-2.35969 4.847086,-2.12681 6.146981,0.42243 0.398912,0.78232 0.462608,1.7087 0.462608,6.72807 0,5.01421 -0.06411,5.94843 -0.462608,6.7416 -0.921975,1.83508 -3.185337,2.63382 -4.870191,1.7187 z m 28.42373,0.011 c -0.47008,-0.20435 -1.09471,-0.76524 -1.38808,-1.24642 -0.50732,-0.83211 -0.53343,-1.31759 -0.53437,-9.93683 -5.3e-4,-4.98409 -0.0903,-9.06443 -0.19943,-9.06744 -0.10914,-0.003 -2.162974,2.02351 -4.564062,4.50337 l -4.365626,4.50885 -1.434678,-0.005 c -1.628741,-0.006 -1.37348,0.21462 -8.04337,-6.95962 l -3.12805,-3.36458 h -3.288096 c -2.604463,-0.21272 -3.288095,-0.0543 -3.288095,-5.05325 0,-5.66075 0.178514,-6.42961 1.713044,-7.378 1.011436,-0.6251 2.754836,-0.69987 3.790198,-0.16255 0.637432,0.33081 4.898777,4.98352 9.212656,10.05876 0.855787,1.00683 1.881897,2.19746 2.280246,2.64584 l 0.72427,0.81524 0.995521,-1.18456 c 4.717952,-5.61384 10.494982,-11.90268 11.273272,-12.272 1.41407,-0.67102 2.88802,-0.56456 3.89313,0.28118 1.59629,1.34319 1.57238,1.08863 1.56602,16.6726 -0.006,13.46001 -0.0333,14.29039 -0.51379,15.34886 -0.87177,1.92043 -2.75734,2.64085 -4.70071,1.79601 z"
       style="fill:#000000;stroke-width:0.264583"
       id="path691-6"
       sodipodi:nodetypes="ccssscsssssscsssssscssscssssscsssssscccsccscsscsssscccssscsssssscscccsscssccsssscssssssssscssssccsccssssscssscscc" /><path
       d="m 30.095667,187.49102 c -0.38688,-0.21013 -0.95243,-0.78497 -1.25677,-1.27741 -0.52078,-0.84264 -0.55336,-1.26552 -0.55336,-7.18289 0,-5.84213 0.0378,-6.34866 0.53334,-7.15049 1.45837,-2.35969 4.84709,-2.12681 6.14698,0.42243 0.39891,0.78232 0.46261,1.7087 0.46261,6.72806 0,5.01421 -0.0641,5.94843 -0.46261,6.7416 -0.92197,1.83508 -3.18534,2.63382 -4.87019,1.7187 z m 28.42373,0.011 c -0.47008,-0.20435 -1.09471,-0.76524 -1.38808,-1.24642 -0.50732,-0.83211 -0.53343,-1.31759 -0.53437,-9.93682 -5.3e-4,-4.98409 -0.0903,-9.06444 -0.19943,-9.06745 -0.10914,-0.003 -2.16297,2.02352 -4.56406,4.50338 l -4.36563,4.50885 -1.43468,-0.005 c -1.62874,-0.006 -1.37349,0.21463 -8.04337,-6.95962 l -3.12805,-3.36459 h -3.28809 -3.2881 v -5.05325 c 0,-5.66075 0.17852,-6.42961 1.71305,-7.378 1.01143,-0.6251 2.75483,-0.69987 3.79019,-0.16255 0.63744,0.33081 4.89878,4.98352 9.21266,10.05876 0.85579,1.00683 1.88189,2.19745 2.28025,2.64584 l 0.72427,0.81524 0.99552,-1.18456 c 4.71795,-5.61385 10.49498,-11.90268 11.27327,-12.272 1.41407,-0.67102 2.88802,-0.56456 3.89313,0.28118 1.59629,1.34319 1.57238,1.08863 1.56602,16.67261 -0.006,13.46 -0.0333,14.29038 -0.51379,15.34885 -0.87177,1.92043 -2.75734,2.64085 -4.70071,1.79601 z m 68.031493,0.0264 c -0.45161,-0.20334 -3.71509,-3.29983 -7.25216,-6.88108 l -6.43106,-6.51138 h -7.45923 c -4.37201,-0.6691 -3.60895,-3.25909 -3.83332,-7.14375 v -3.58434 -3.58434 l -9.458853,0.0786 -9.45886,0.0786 -1.45583,0.68297 c -0.8007,0.37563 -2.02594,1.25309 -2.72275,1.9499 -2.55822,2.55821 -3.08627,4.62571 -3.09286,12.10956 l -0.005,5.21741 15.54427,0.0742 c 14.762513,0.0705 15.581533,0.0995 16.285383,0.57656 2.24697,1.52292 1.9042,5.04505 -0.6141,6.31029 -0.84838,0.42624 -2.27301,0.46261 -18.118683,0.46261 -18.99212,0 -18.29016,0.06 -19.56036,-1.67275 -0.52897,-0.72162 -0.54797,-1.06111 -0.54797,-9.78958 0,-10.09748 0.0455,-10.42847 1.93445,-14.06913 1.29496,-2.49585 4.81405,-6.02131 7.19367,-7.20669 3.49776,-1.74238 4.81484,-1.91347 16.13587,-2.09614 11.303883,-0.1824 12.662723,-0.0666 13.822643,1.17749 1.21319,1.30125 1.26228,1.59619 1.26231,7.57878 l 2e-5,5.70594 h 1.71257 1.71257 l 6.55499,-6.64164 c 3.60524,-3.65291 6.85352,-6.79603 7.21841,-6.98472 0.66078,-0.34171 1.60934,-0.47791 2.95711,-0.42459 0.41346,0.0163 1.10243,0.39931 1.65363,0.91917 0.85409,0.80551 0.94535,1.02796 0.9498,2.31511 l 0.005,1.42396 -6.25936,6.16488 -6.25937,6.16488 0.76204,0.84658 c 0.41912,0.46562 3.22274,3.3474 6.23027,6.40396 4.54289,4.61696 5.49886,5.72073 5.64931,6.52271 0.48988,2.61129 -2.58449,4.93821 -5.05486,3.8259 z m 22.34015,-0.0862 c -0.43347,0.14449 -0.95381,-0.87901 -1.25677,-1.41805 -0.53982,-0.96049 -0.55083,-1.27617 -0.55083,-15.78774 v -14.80764 l 0.60325,-0.89517 c 0.99782,-1.48067 2.51456,-1.92568 4.36486,-1.28066 0.83727,0.29187 3.24406,2.89559 9.02479,9.76322 1.65698,1.96853 3.09972,3.61358 3.2061,3.65566 0.10638,0.0421 1.2584,-1.20807 2.56005,-2.77813 4.74605,-5.72471 9.03377,-10.32719 9.90331,-10.63032 2.09491,-0.73029 3.86601,-0.009 4.58043,1.86631 0.39048,1.02479 0.42892,2.68183 0.36116,15.56667 -0.0727,13.8261 -0.0974,14.45541 -0.59922,15.28529 -0.69662,1.152 -2.49877,2.02499 -3.71085,1.79761 -0.50026,-0.0939 -1.25388,-0.46037 -1.67473,-0.81448 -1.35634,-1.1413 -1.47084,-2.16291 -1.27783,-11.40137 0.0954,-4.56865 0.084,-8.30664 -0.0255,-8.30664 -0.10945,0 -1.92342,1.85712 -4.03104,4.12693 -2.10763,2.26981 -4.15488,4.29388 -4.54946,4.49792 -0.83288,0.4307 -2.41464,0.48655 -3.11806,0.11008 -0.26813,-0.14349 -2.28003,-2.21988 -4.47092,-4.61418 l -3.98343,-4.35327 -0.0757,9.35567 -0.0757,9.35567 -0.66145,0.7076 c -1.36285,1.45794 -3.00369,0.48611 -4.5424,0.99902 z M 83.715747,174.51445 c -2.03513,-1.05628 -3.21759,-3.14172 -2.97943,-5.25465 0.33354,-2.95919 2.98205,-5.15919 5.80804,-4.82449 3.89999,0.46189 5.98113,5.01525 3.74587,8.19563 -1.07569,1.53052 -2.50732,2.28936 -4.32553,2.29277 -0.80624,0.002 -1.80918,-0.181 -2.24895,-0.40926 z m 56.519133,12.60944 c 0.45902,0 0.96735,-0.71685 1.24361,-1.12447 0.47098,-0.6949 0.50781,-1.46741 0.59021,-12.38281 0.0483,-6.40291 0.006,-13.10318 -0.0932,-14.88949 -0.1738,-3.11759 -0.21166,-3.27842 -0.94429,-4.01105 -1.00918,-1.00918 -2.52313,-1.27293 -3.80772,-0.66336 -1.77612,0.84282 -1.725,0.35022 -1.725,16.62005 v 14.67722 l 0.70604,0.83906 c 1.12087,1.33204 2.41908,0.93485 4.03031,0.93485 z"
       style="fill:#000000;stroke-width:0.264583"
       id="path777"
       sodipodi:nodetypes="ssscsssscssssccscccssssscssscscccscccccccssccssssssssssscccsscsccccsssccssscsssssscsssssssssscccssssssscsssscssscsss" /></g></svg>
